<svg width="122" height="120" viewBox="0 0 122 120" fill="none" xmlns="http://www.w3.org/2000/svg">
<rect width="121.993" height="120" fill="#F3EDE2"/>
<path d="M15.0353 12.2831C15.0054 12.1724 14.9614 12.0749 14.9035 11.9905C14.8455 11.9044 14.7743 11.8315 14.6899 11.7717C14.6056 11.712 14.5089 11.6671 14.3999 11.6373C14.291 11.6056 14.1715 11.5898 14.0414 11.5898C13.7796 11.5898 13.5528 11.6531 13.3613 11.7796C13.1715 11.9062 13.0247 12.0907 12.921 12.3332C12.8173 12.574 12.7655 12.8666 12.7655 13.2111C12.7655 13.5573 12.8156 13.8526 12.9158 14.0968C13.0159 14.3411 13.1609 14.5274 13.3507 14.6557C13.5405 14.784 13.7708 14.8482 14.0414 14.8482C14.2804 14.8482 14.4825 14.8095 14.6477 14.7322C14.8147 14.6531 14.9412 14.5415 15.0274 14.3974C15.1135 14.2533 15.1565 14.0837 15.1565 13.8886L15.3991 13.9176H14.0862V12.9659H16.414V13.6803C16.414 14.1636 16.3112 14.5775 16.1056 14.922C15.9017 15.2664 15.6205 15.5309 15.262 15.7155C14.9052 15.9 14.4948 15.9923 14.0309 15.9923C13.5159 15.9923 13.0634 15.8807 12.6732 15.6575C12.2831 15.4343 11.979 15.1162 11.7611 14.7032C11.5432 14.2884 11.4342 13.7963 11.4342 13.2269C11.4342 12.784 11.5001 12.3912 11.6319 12.0485C11.7637 11.7041 11.9474 11.4123 12.1829 11.1733C12.4202 10.9343 12.6943 10.7533 13.0054 10.6302C13.3182 10.5072 13.6548 10.4457 14.0151 10.4457C14.3279 10.4457 14.6187 10.4905 14.8876 10.5802C15.1583 10.6698 15.3973 10.7963 15.6047 10.9598C15.8138 11.1232 15.9834 11.3174 16.1135 11.5424C16.2435 11.7673 16.3244 12.0142 16.356 12.2831H15.0353ZM17.1831 15.9185V10.5195H20.9476V11.5793H18.488V12.6865H20.7552V13.7489H18.488V14.8587H20.9476V15.9185H17.1831ZM21.7648 15.9185V10.5195H23.995C24.3993 10.5195 24.7481 10.5925 25.0416 10.7383C25.3369 10.8824 25.5645 11.0898 25.7244 11.3605C25.8843 11.6294 25.9643 11.9483 25.9643 12.3174C25.9643 12.6918 25.8826 13.0099 25.7191 13.2717C25.5557 13.5318 25.3237 13.7304 25.0232 13.8675C24.7226 14.0028 24.3667 14.0705 23.9555 14.0705H22.5451V13.0424H23.713C23.9098 13.0424 24.0741 13.0169 24.2059 12.9659C24.3395 12.9132 24.4406 12.8341 24.5091 12.7287C24.5776 12.6215 24.6119 12.4844 24.6119 12.3174C24.6119 12.1505 24.5776 12.0125 24.5091 11.9035C24.4406 11.7928 24.3395 11.7102 24.2059 11.6557C24.0724 11.5995 23.908 11.5714 23.713 11.5714H23.0697V15.9185H21.7648ZM24.8043 13.451L26.1488 15.9185H24.7253L23.4072 13.451H24.8043ZM27.8478 15.9185H26.4454L28.267 10.5195H30.0042L31.8259 15.9185H30.4234L29.1554 11.8798H29.1132L27.8478 15.9185ZM27.6607 13.7937H30.5921V14.7849H27.6607V13.7937ZM32.4071 15.9185V10.5195H34.6374C35.0416 10.5195 35.3904 10.5925 35.6839 10.7383C35.9792 10.8824 36.2068 11.0898 36.3667 11.3605C36.5266 11.6294 36.6066 11.9483 36.6066 12.3174C36.6066 12.6918 36.5249 13.0099 36.3614 13.2717C36.198 13.5318 35.966 13.7304 35.6655 13.8675C35.365 14.0028 35.0091 14.0705 34.5978 14.0705H33.1875V13.0424H34.3553C34.5521 13.0424 34.7165 13.0169 34.8483 12.9659C34.9818 12.9132 35.0829 12.8341 35.1514 12.7287C35.22 12.6215 35.2542 12.4844 35.2542 12.3174C35.2542 12.1505 35.22 12.0125 35.1514 11.9035C35.0829 11.7928 34.9818 11.7102 34.8483 11.6557C34.7147 11.5995 34.5504 11.5714 34.3553 11.5714H33.7121V15.9185H32.4071ZM35.4467 13.451L36.7911 15.9185H35.3676L34.0495 13.451H35.4467ZM39.3179 15.9185H37.3223V10.5195H39.3153C39.8654 10.5195 40.339 10.6276 40.7362 10.8438C41.1352 11.0582 41.4427 11.3675 41.6589 11.7717C41.875 12.1742 41.9831 12.6557 41.9831 13.2164C41.9831 13.7787 41.875 14.262 41.6589 14.6663C41.4445 15.0705 41.1378 15.3807 40.7388 15.5968C40.3399 15.8113 39.8663 15.9185 39.3179 15.9185ZM38.6272 14.806H39.2678C39.5701 14.806 39.8258 14.755 40.035 14.6531C40.2459 14.5494 40.4049 14.3816 40.5121 14.1496C40.6211 13.9158 40.6756 13.6048 40.6756 13.2164C40.6756 12.828 40.6211 12.5186 40.5121 12.2884C40.4032 12.0564 40.2424 11.8895 40.0297 11.7875C39.8188 11.6838 39.5587 11.632 39.2494 11.632H38.6272V14.806ZM44.3399 15.9185V10.5195H46.5912C46.9954 10.5195 47.3337 10.5766 47.6061 10.6909C47.8803 10.8051 48.0859 10.965 48.223 11.1707C48.3618 11.3763 48.4313 11.6144 48.4313 11.8851C48.4313 12.0907 48.3882 12.2744 48.3021 12.436C48.216 12.596 48.0973 12.7287 47.9462 12.8341C47.7951 12.9396 47.6202 13.0134 47.4216 13.0555V13.1083C47.6395 13.1188 47.8408 13.1777 48.0253 13.2849C48.2116 13.3921 48.361 13.5415 48.4734 13.733C48.5859 13.9229 48.6422 14.1478 48.6422 14.4079C48.6422 14.6979 48.5683 14.9571 48.4207 15.1856C48.2731 15.4123 48.0596 15.5916 47.7801 15.7234C47.5007 15.8534 47.1615 15.9185 46.7626 15.9185H44.3399ZM45.6448 14.8666H46.4515C46.7344 14.8666 46.9427 14.813 47.0763 14.7058C47.2116 14.5986 47.2792 14.4492 47.2792 14.2577C47.2792 14.1188 47.2467 13.9993 47.1817 13.8991C47.1167 13.7972 47.0244 13.719 46.9049 13.6645C46.7854 13.6083 46.6422 13.5802 46.4752 13.5802H45.6448V14.8666ZM45.6448 12.7392H46.3671C46.5095 12.7392 46.636 12.7155 46.7467 12.668C46.8575 12.6206 46.9436 12.552 47.0051 12.4624C47.0684 12.3728 47.1 12.2647 47.1 12.1382C47.1 11.9571 47.0358 11.8148 46.9075 11.7111C46.7792 11.6074 46.6061 11.5556 46.3882 11.5556H45.6448V12.7392ZM52.5358 10.5195H53.8381V14.0019C53.8381 14.4044 53.7423 14.755 53.5508 15.0538C53.3592 15.3508 53.0921 15.581 52.7494 15.7445C52.4067 15.9062 52.0086 15.987 51.5552 15.987C51.0965 15.987 50.6958 15.9062 50.3531 15.7445C50.0103 15.581 49.7441 15.3508 49.5543 15.0538C49.3645 14.755 49.2696 14.4044 49.2696 14.0019V10.5195H50.5745V13.8886C50.5745 14.0749 50.6149 14.241 50.6958 14.3868C50.7784 14.5327 50.8935 14.6469 51.0411 14.7295C51.1887 14.8121 51.3601 14.8534 51.5552 14.8534C51.7502 14.8534 51.9207 14.8121 52.0666 14.7295C52.2142 14.6469 52.3293 14.5327 52.4119 14.3868C52.4945 14.241 52.5358 14.0749 52.5358 13.8886V10.5195ZM54.4794 11.5793V10.5195H59.0426V11.5793H57.4055V15.9185H56.1191V11.5793H54.4794ZM59.6799 15.9185V10.5195H60.9848V14.8587H63.2309V15.9185H59.6799ZM63.9064 15.9185V10.5195H67.6709V11.5793H65.2113V12.6865H67.4784V13.7489H65.2113V14.8587H67.6709V15.9185H63.9064ZM68.4881 15.9185V10.5195H70.7183C71.1226 10.5195 71.4714 10.5925 71.7649 10.7383C72.0602 10.8824 72.2878 11.0898 72.4477 11.3605C72.6076 11.6294 72.6876 11.9483 72.6876 12.3174C72.6876 12.6918 72.6059 13.0099 72.4424 13.2717C72.279 13.5318 72.047 13.7304 71.7465 13.8675C71.4459 14.0028 71.09 14.0705 70.6788 14.0705H69.2684V13.0424H70.4363C70.6331 13.0424 70.7974 13.0169 70.9292 12.9659C71.0628 12.9132 71.1639 12.8341 71.2324 12.7287C71.3009 12.6215 71.3352 12.4844 71.3352 12.3174C71.3352 12.1505 71.3009 12.0125 71.2324 11.9035C71.1639 11.7928 71.0628 11.7102 70.9292 11.6557C70.7957 11.5995 70.6313 11.5714 70.4363 11.5714H69.793V15.9185H68.4881ZM71.5276 13.451L72.8721 15.9185H71.4486L70.1305 13.451H71.5276ZM73.9035 25.9185V20.5195H76.1337C76.538 20.5195 76.8868 20.5925 77.1803 20.7383C77.4756 20.8824 77.7032 21.0898 77.8631 21.3605C78.023 21.6294 78.103 21.9483 78.103 22.3174C78.103 22.6918 78.0213 23.0099 77.8578 23.2717C77.6944 23.5318 77.4624 23.7304 77.1619 23.8675C76.8613 24.0028 76.5054 24.0705 76.0942 24.0705H74.6838V23.0424H75.8517C76.0485 23.0424 76.2128 23.0169 76.3446 22.9659C76.4782 22.9132 76.5793 22.8341 76.6478 22.7287C76.7163 22.6215 76.7506 22.4844 76.7506 22.3174C76.7506 22.1505 76.7163 22.0125 76.6478 21.9035C76.5793 21.7928 76.4782 21.7102 76.3446 21.6557C76.2111 21.5995 76.0468 21.5714 75.8517 21.5714H75.2084V25.9185H73.9035ZM76.9431 23.451L78.2875 25.9185H76.864L75.5459 23.451H76.9431ZM83.9145 23.219C83.9145 23.813 83.8002 24.3165 83.5718 24.7295C83.3433 25.1425 83.034 25.4562 82.6438 25.6707C82.2554 25.8851 81.8196 25.9923 81.3363 25.9923C80.8512 25.9923 80.4145 25.8842 80.0261 25.668C79.6377 25.4519 79.3292 25.1381 79.1008 24.7269C78.8741 24.3139 78.7607 23.8113 78.7607 23.219C78.7607 22.625 78.8741 22.1215 79.1008 21.7085C79.3292 21.2954 79.6377 20.9817 80.0261 20.7673C80.4145 20.5529 80.8512 20.4457 81.3363 20.4457C81.8196 20.4457 82.2554 20.5529 82.6438 20.7673C83.034 20.9817 83.3433 21.2954 83.5718 21.7085C83.8002 22.1215 83.9145 22.625 83.9145 23.219ZM82.5806 23.219C82.5806 22.8675 82.5305 22.5705 82.4303 22.328C82.3319 22.0854 82.1895 21.9018 82.0032 21.777C81.8187 21.6522 81.5964 21.5898 81.3363 21.5898C81.0779 21.5898 80.8556 21.6522 80.6693 21.777C80.483 21.9018 80.3398 22.0854 80.2396 22.328C80.1412 22.5705 80.092 22.8675 80.092 23.219C80.092 23.5705 80.1412 23.8675 80.2396 24.11C80.3398 24.3526 80.483 24.5362 80.6693 24.661C80.8556 24.7858 81.0779 24.8482 81.3363 24.8482C81.5964 24.8482 81.8187 24.7858 82.0032 24.661C82.1895 24.5362 82.3319 24.3526 82.4303 24.11C82.5305 23.8675 82.5806 23.5705 82.5806 23.219ZM89.577 22.4756H88.2589C88.2414 22.3403 88.2053 22.2181 88.1508 22.1092C88.0964 22.0002 88.0243 21.907 87.9347 21.8297C87.8451 21.7524 87.7387 21.6935 87.6157 21.6531C87.4944 21.6109 87.36 21.5898 87.2124 21.5898C86.9505 21.5898 86.7247 21.654 86.5349 21.7823C86.3468 21.9106 86.2018 22.096 86.0999 22.3385C85.9997 22.581 85.9496 22.8745 85.9496 23.219C85.9496 23.5775 86.0006 23.878 86.1025 24.1206C86.2062 24.3613 86.3512 24.5432 86.5375 24.6663C86.7255 24.7875 86.9479 24.8482 87.2045 24.8482C87.3486 24.8482 87.4795 24.8297 87.5972 24.7928C87.7168 24.7559 87.8213 24.7023 87.911 24.632C88.0023 24.5599 88.077 24.4729 88.135 24.371C88.1948 24.2673 88.2361 24.1504 88.2589 24.0204L89.577 24.0283C89.5542 24.2673 89.4848 24.5028 89.3688 24.7348C89.2545 24.9668 89.0972 25.1786 88.8969 25.3701C88.6965 25.5599 88.4523 25.7111 88.164 25.8236C87.8776 25.936 87.5489 25.9923 87.1781 25.9923C86.6895 25.9923 86.2519 25.8851 85.8653 25.6707C85.4804 25.4545 85.1763 25.1399 84.9531 24.7269C84.7299 24.3139 84.6183 23.8113 84.6183 23.219C84.6183 22.625 84.7317 22.1215 84.9584 21.7085C85.1851 21.2954 85.4918 20.9817 85.8784 20.7673C86.2651 20.5529 86.6983 20.4457 87.1781 20.4457C87.505 20.4457 87.8073 20.4914 88.0849 20.5828C88.3626 20.6724 88.6069 20.8042 88.8178 20.9782C89.0287 21.1505 89.2001 21.3622 89.3319 21.6135C89.4637 21.8649 89.5454 22.1522 89.577 22.4756ZM90.3237 25.9185V20.5195H91.6287V22.8025H91.6998L93.4845 20.5195H95.0214L93.1076 22.929L95.0557 25.9185H93.4951L92.1506 23.7963L91.6287 24.4554V25.9185H90.3237ZM98.8288 26.0002C98.4492 26.0002 98.1214 25.9325 97.8455 25.7972C97.5713 25.6619 97.3604 25.48 97.2128 25.2515C97.0651 25.0213 96.9913 24.7656 96.9913 24.4844C96.9913 24.277 97.0318 24.0942 97.1126 23.936C97.1952 23.7761 97.3086 23.6294 97.4527 23.4958C97.5985 23.3605 97.7681 23.2278 97.9615 23.0977L99.095 22.3728C99.2233 22.2919 99.3138 22.2067 99.3665 22.1171C99.421 22.0274 99.4483 21.9378 99.4483 21.8482C99.4483 21.7515 99.4105 21.6636 99.3349 21.5845C99.2611 21.5055 99.1513 21.4668 99.0054 21.4686C98.9122 21.4686 98.8314 21.4879 98.7629 21.5266C98.6943 21.5652 98.6407 21.6171 98.6021 21.6821C98.5651 21.7471 98.5467 21.8209 98.5467 21.9035C98.5467 22.0107 98.5774 22.1206 98.639 22.2331C98.7005 22.3455 98.7831 22.465 98.8868 22.5916C98.9922 22.7181 99.1091 22.8578 99.2374 23.0107L101.823 25.9185H100.511L98.3463 23.5696C98.2233 23.4325 98.0941 23.2787 97.9588 23.1083C97.8235 22.9378 97.7093 22.7515 97.6161 22.5494C97.523 22.3455 97.4764 22.1241 97.4764 21.8851C97.4764 21.6162 97.5397 21.3728 97.6662 21.1548C97.7927 20.9369 97.9702 20.7638 98.1987 20.6355C98.4289 20.5055 98.697 20.4404 99.0028 20.4404C99.298 20.4404 99.5528 20.5011 99.7673 20.6223C99.9817 20.7436 100.147 20.9044 100.263 21.1048C100.379 21.3051 100.437 21.5248 100.437 21.7638C100.437 22.0169 100.374 22.2497 100.25 22.4624C100.125 22.6733 99.9483 22.8605 99.7198 23.0239L98.61 23.8174C98.4922 23.9018 98.3999 23.9923 98.3332 24.0889C98.2664 24.1838 98.233 24.2875 98.233 24.4C98.233 24.516 98.2602 24.6171 98.3147 24.7032C98.3709 24.7893 98.45 24.8569 98.552 24.9062C98.6539 24.9554 98.7734 24.98 98.9105 24.98C99.0933 24.98 99.276 24.9369 99.4588 24.8508C99.6416 24.7629 99.8086 24.6399 99.9597 24.4817C100.111 24.3218 100.232 24.1329 100.323 23.9149C100.415 23.6953 100.461 23.4545 100.461 23.1926H101.499C101.499 23.516 101.465 23.8165 101.396 24.0942C101.328 24.3701 101.225 24.6179 101.088 24.8376C100.953 25.0555 100.785 25.2366 100.584 25.3807C100.521 25.4158 100.46 25.4492 100.4 25.4808C100.34 25.5125 100.279 25.5459 100.215 25.581C100.008 25.7304 99.7831 25.8376 99.5405 25.9026C99.2998 25.9677 99.0625 26.0002 98.8288 26.0002ZM10.1221 34.9185V29.5195H12.3523C12.7565 29.5195 13.1053 29.5925 13.3988 29.7383C13.6941 29.8824 13.9217 30.0898 14.0816 30.3605C14.2415 30.6294 14.3215 30.9483 14.3215 31.3174C14.3215 31.6918 14.2398 32.0099 14.0763 32.2717C13.9129 32.5318 13.6809 32.7304 13.3804 32.8675C13.0799 33.0028 12.724 33.0705 12.3127 33.0705H10.9024V32.0424H12.0702C12.267 32.0424 12.4314 32.0169 12.5632 31.9659C12.6967 31.9132 12.7978 31.8341 12.8663 31.7287C12.9349 31.6215 12.9691 31.4844 12.9691 31.3174C12.9691 31.1505 12.9349 31.0125 12.8663 30.9035C12.7978 30.7928 12.6967 30.7102 12.5632 30.6557C12.4296 30.5995 12.2653 30.5714 12.0702 30.5714H11.427V34.9185H10.1221ZM13.1616 32.451L14.506 34.9185H13.0825L11.7644 32.451H13.1616ZM15.0372 34.9185V29.5195H18.8017V30.5793H16.3422V31.6865H18.6093V32.7489H16.3422V33.8587H18.8017V34.9185H15.0372ZM20.9239 29.5195V34.9185H19.619V29.5195H20.9239ZM21.7431 34.9185V29.5195H23.048V33.8587H25.294V34.9185H21.7431ZM25.9696 34.9185V29.5195H27.2745V33.8587H29.5205V34.9185H25.9696ZM29.0934 29.5195H30.5513L31.6927 31.7787H31.7402L32.8817 29.5195H34.3395L32.365 33.1153V34.9185H31.068V33.1153L29.0934 29.5195ZM35.9594 29.5195V30.1206C35.9594 30.2875 35.926 30.4563 35.8592 30.6267C35.7942 30.7954 35.709 30.9536 35.6035 31.1012C35.4981 31.2489 35.3865 31.3737 35.2687 31.4756L34.7204 31.1751C34.8012 31.0415 34.8733 30.8912 34.9366 30.7243C34.9998 30.5556 35.0315 30.3552 35.0315 30.1232V29.5195H35.9594ZM39.6026 31.1382C39.5851 30.9448 39.5069 30.7946 39.368 30.6874C39.2309 30.5784 39.035 30.5239 38.7801 30.5239C38.6114 30.5239 38.4708 30.5459 38.3584 30.5898C38.2459 30.6338 38.1615 30.6944 38.1053 30.7717C38.049 30.8473 38.02 30.9343 38.0183 31.0327C38.0148 31.1135 38.0306 31.1847 38.0657 31.2462C38.1026 31.3077 38.1554 31.3622 38.2239 31.4097C38.2942 31.4554 38.3786 31.4958 38.477 31.5309C38.5754 31.5661 38.6861 31.5968 38.8091 31.6232L39.2731 31.7287C39.5403 31.7867 39.7758 31.864 39.9796 31.9606C40.1852 32.0573 40.3575 32.1724 40.4963 32.306C40.6369 32.4396 40.7432 32.5933 40.8153 32.7673C40.8873 32.9413 40.9243 33.1364 40.926 33.3526C40.9243 33.6935 40.8381 33.9861 40.6677 34.2304C40.4972 34.4747 40.252 34.6619 39.9322 34.7919C39.6141 34.922 39.2301 34.987 38.7801 34.987C38.3285 34.987 37.9348 34.9193 37.5991 34.784C37.2635 34.6487 37.0025 34.4431 36.8162 34.1671C36.6299 33.8912 36.5341 33.5424 36.5288 33.1206H37.7784C37.7889 33.2946 37.8355 33.4396 37.9181 33.5555C38.0007 33.6715 38.1141 33.7594 38.2582 33.8192C38.4041 33.8789 38.5728 33.9088 38.7643 33.9088C38.9401 33.9088 39.0895 33.8851 39.2125 33.8376C39.3373 33.7902 39.433 33.7243 39.4998 33.6399C39.5666 33.5555 39.6009 33.4589 39.6026 33.3499C39.6009 33.248 39.5692 33.161 39.5077 33.0889C39.4462 33.0151 39.3513 32.9519 39.223 32.8991C39.0965 32.8446 38.9348 32.7946 38.738 32.7489L38.1738 32.6171C37.7063 32.5099 37.3381 32.3367 37.0693 32.0977C36.8004 31.857 36.6668 31.5318 36.6686 31.1223C36.6668 30.7884 36.7564 30.4958 36.9374 30.2445C37.1185 29.9932 37.3689 29.7972 37.6888 29.6566C38.0086 29.516 38.3733 29.4457 38.7828 29.4457C39.2011 29.4457 39.564 29.5169 39.8715 29.6592C40.1808 29.7998 40.4207 29.9976 40.5912 30.2524C40.7617 30.5072 40.8487 30.8025 40.8522 31.1382H39.6026ZM44.4849 29.5195V34.9185H43.18V29.5195H44.4849ZM45.3041 34.9185V29.5195H47.5343C47.9385 29.5195 48.2874 29.5925 48.5809 29.7383C48.8761 29.8824 49.1037 30.0898 49.2636 30.3605C49.4236 30.6294 49.5035 30.9483 49.5035 31.3174C49.5035 31.6918 49.4218 32.0099 49.2584 32.2717C49.0949 32.5318 48.8629 32.7304 48.5624 32.8675C48.2619 33.0028 47.906 33.0705 47.4948 33.0705H46.0844V32.0424H47.2522C47.4491 32.0424 47.6134 32.0169 47.7452 31.9659C47.8788 31.9132 47.9798 31.8341 48.0484 31.7287C48.1169 31.6215 48.1512 31.4844 48.1512 31.3174C48.1512 31.1505 48.1169 31.0125 48.0484 30.9035C47.9798 30.7928 47.8788 30.7102 47.7452 30.6557C47.6116 30.5995 47.4473 30.5714 47.2522 30.5714H46.609V34.9185H45.3041ZM48.3436 32.451L49.6881 34.9185H48.2645L46.9464 32.451H48.3436ZM51.5242 29.5195V34.9185H50.2193V29.5195H51.5242ZM55.2617 31.1382C55.2441 30.9448 55.1659 30.7946 55.027 30.6874C54.8899 30.5784 54.694 30.5239 54.4392 30.5239C54.2704 30.5239 54.1298 30.5459 54.0174 30.5898C53.9049 30.6338 53.8205 30.6944 53.7643 30.7717C53.7081 30.8473 53.6791 30.9343 53.6773 31.0327C53.6738 31.1135 53.6896 31.1847 53.7248 31.2462C53.7617 31.3077 53.8144 31.3622 53.8829 31.4097C53.9532 31.4554 54.0376 31.4958 54.136 31.5309C54.2344 31.5661 54.3451 31.5968 54.4682 31.6232L54.9321 31.7287C55.1993 31.7867 55.4348 31.864 55.6386 31.9606C55.8443 32.0573 56.0165 32.1724 56.1553 32.306C56.2959 32.4396 56.4022 32.5933 56.4743 32.7673C56.5464 32.9413 56.5833 33.1364 56.585 33.3526C56.5833 33.6935 56.4972 33.9861 56.3267 34.2304C56.1562 34.4747 55.911 34.6619 55.5912 34.7919C55.2731 34.922 54.8891 34.987 54.4392 34.987C53.9875 34.987 53.5938 34.9193 53.2581 34.784C52.9225 34.6487 52.6615 34.4431 52.4752 34.1671C52.2889 33.8912 52.1931 33.5424 52.1878 33.1206H53.4374C53.4479 33.2946 53.4945 33.4396 53.5771 33.5555C53.6597 33.6715 53.7731 33.7594 53.9172 33.8192C54.0631 33.8789 54.2318 33.9088 54.4233 33.9088C54.5991 33.9088 54.7485 33.8851 54.8715 33.8376C54.9963 33.7902 55.0921 33.7243 55.1588 33.6399C55.2256 33.5555 55.2599 33.4589 55.2617 33.3499C55.2599 33.248 55.2283 33.161 55.1668 33.0889C55.1052 33.0151 55.0103 32.9519 54.882 32.8991C54.7555 32.8446 54.5938 32.7946 54.397 32.7489L53.8328 32.6171C53.3653 32.5099 52.9972 32.3367 52.7283 32.0977C52.4594 31.857 52.3258 31.5318 52.3276 31.1223C52.3258 30.7884 52.4154 30.4958 52.5965 30.2445C52.7775 29.9932 53.0279 29.7972 53.3478 29.6566C53.6676 29.516 54.0323 29.4457 54.4418 29.4457C54.8601 29.4457 55.223 29.5169 55.5305 29.6592C55.8399 29.7998 56.0798 29.9976 56.2502 30.2524C56.4207 30.5072 56.5077 30.8025 56.5112 31.1382H55.2617ZM57.2441 34.9185V29.5195H58.549V31.6865H60.6764V29.5195H61.9787V34.9185H60.6764V32.7489H58.549V34.9185H57.2441ZM64.3921 34.9185V29.5195H66.6223C67.0266 29.5195 67.3754 29.5986 67.6689 29.7568C67.9642 29.9132 68.1918 30.132 68.3517 30.4132C68.5116 30.6926 68.5916 31.0178 68.5916 31.3886C68.5916 31.7612 68.5099 32.0872 68.3464 32.3666C68.1847 32.6443 67.9536 32.8596 67.6531 33.0125C67.3526 33.1654 66.9958 33.2418 66.5828 33.2418H65.2067V32.2137H66.3403C66.5371 32.2137 66.7014 32.1794 66.8332 32.1109C66.9668 32.0424 67.0679 31.9466 67.1364 31.8236C67.2049 31.6988 67.2392 31.5538 67.2392 31.3886C67.2392 31.2216 67.2049 31.0775 67.1364 30.9563C67.0679 30.8332 66.9668 30.7383 66.8332 30.6715C66.6997 30.6048 66.5354 30.5714 66.3403 30.5714H65.697V34.9185H64.3921ZM72.5011 29.5195H73.8033V33.0019C73.8033 33.4044 73.7076 33.755 73.516 34.0538C73.3244 34.3508 73.0573 34.581 72.7146 34.7445C72.3719 34.9062 71.9738 34.987 71.5204 34.987C71.0617 34.987 70.661 34.9062 70.3183 34.7445C69.9756 34.581 69.7093 34.3508 69.5195 34.0538C69.3297 33.755 69.2348 33.4044 69.2348 33.0019V29.5195H70.5397V32.8886C70.5397 33.0749 70.5802 33.241 70.661 33.3868C70.7436 33.5327 70.8587 33.6469 71.0063 33.7295C71.154 33.8121 71.3253 33.8534 71.5204 33.8534C71.7155 33.8534 71.886 33.8121 72.0318 33.7295C72.1794 33.6469 72.2946 33.5327 72.3772 33.3868C72.4598 33.241 72.5011 33.0749 72.5011 32.8886V29.5195ZM74.6212 34.9185V29.5195H76.8725C77.2768 29.5195 77.6151 29.5766 77.8875 29.6909C78.1616 29.8051 78.3673 29.965 78.5043 30.1707C78.6432 30.3763 78.7126 30.6144 78.7126 30.8851C78.7126 31.0907 78.6695 31.2744 78.5834 31.436C78.4973 31.596 78.3787 31.7287 78.2275 31.8341C78.0764 31.9396 77.9015 32.0134 77.7029 32.0555V32.1083C77.9209 32.1188 78.1221 32.1777 78.3066 32.2849C78.4929 32.3921 78.6423 32.5415 78.7548 32.733C78.8673 32.9229 78.9235 33.1478 78.9235 33.4079C78.9235 33.6979 78.8497 33.9571 78.7021 34.1856C78.5544 34.4123 78.3409 34.5916 78.0615 34.7234C77.782 34.8534 77.4428 34.9185 77.0439 34.9185H74.6212ZM75.9261 33.8666H76.7328C77.0158 33.8666 77.224 33.813 77.3576 33.7058C77.4929 33.5986 77.5606 33.4492 77.5606 33.2577C77.5606 33.1188 77.5281 32.9993 77.463 32.8991C77.398 32.7972 77.3058 32.719 77.1862 32.6645C77.0667 32.6083 76.9235 32.5802 76.7565 32.5802H75.9261V33.8666ZM75.9261 31.7392H76.6485C76.7908 31.7392 76.9174 31.7155 77.0281 31.668C77.1388 31.6206 77.2249 31.552 77.2864 31.4624C77.3497 31.3728 77.3813 31.2647 77.3813 31.1382C77.3813 30.9571 77.3172 30.8148 77.1889 30.7111C77.0606 30.6074 76.8875 30.5556 76.6696 30.5556H75.9261V31.7392Z" fill="#CEA35D"/>
<path d="M76.9938 15.9185H74.9982V10.5195H76.9912C77.5413 10.5195 78.0149 10.6276 78.4121 10.8438C78.811 11.0582 79.1186 11.3675 79.3347 11.7717C79.5509 12.1742 79.659 12.6557 79.659 13.2164C79.659 13.7787 79.5509 14.262 79.3347 14.6663C79.1203 15.0705 78.8137 15.3807 78.4147 15.5968C78.0158 15.8113 77.5421 15.9185 76.9938 15.9185ZM76.3031 14.806H76.9437C77.246 14.806 77.5017 14.755 77.7108 14.6531C77.9217 14.5494 78.0808 14.3816 78.188 14.1496C78.297 13.9158 78.3514 13.6048 78.3514 13.2164C78.3514 12.828 78.297 12.5186 78.188 12.2884C78.079 12.0564 77.9182 11.8895 77.7056 11.7875C77.4947 11.6838 77.2346 11.632 76.9253 11.632H76.3031V14.806ZM80.4209 15.9185V10.5195H82.6511C83.0553 10.5195 83.4042 10.5925 83.6976 10.7383C83.9929 10.8824 84.2205 11.0898 84.3804 11.3605C84.5404 11.6294 84.6203 11.9483 84.6203 12.3174C84.6203 12.6918 84.5386 13.0099 84.3752 13.2717C84.2117 13.5318 83.9797 13.7304 83.6792 13.8675C83.3787 14.0028 83.0228 14.0705 82.6115 14.0705H81.2012V13.0424H82.369C82.5658 13.0424 82.7302 13.0169 82.862 12.9659C82.9955 12.9132 83.0966 12.8341 83.1651 12.7287C83.2337 12.6215 83.2679 12.4844 83.2679 12.3174C83.2679 12.1505 83.2337 12.0125 83.1651 11.9035C83.0966 11.7928 82.9955 11.7102 82.862 11.6557C82.7284 11.5995 82.5641 11.5714 82.369 11.5714H81.7258V15.9185H80.4209ZM83.4604 13.451L84.8049 15.9185H83.3813L82.0632 13.451H83.4604ZM86.641 10.5195V15.9185H85.336V10.5195H86.641ZM92.0551 10.5195V15.9185H90.9479L88.7994 12.8025H88.7651V15.9185H87.4602V10.5195H88.5832L90.708 13.6302H90.7528V10.5195H92.0551ZM92.8756 15.9185V10.5195H94.1805V12.8025H94.2517L96.0364 10.5195H97.5733L95.6594 12.929L97.6075 15.9185H96.0469L94.7025 13.7963L94.1805 14.4554V15.9185H92.8756ZM99.3929 10.5195V15.9185H98.088V10.5195H99.3929ZM104.807 10.5195V15.9185H103.7L101.551 12.8025H101.517V15.9185H100.212V10.5195H101.335L103.46 13.6302H103.505V10.5195H104.807ZM109.171 12.2831C109.141 12.1724 109.097 12.0749 109.039 11.9905C108.981 11.9044 108.91 11.8315 108.825 11.7717C108.741 11.712 108.644 11.6671 108.535 11.6373C108.426 11.6056 108.307 11.5898 108.177 11.5898C107.915 11.5898 107.688 11.6531 107.497 11.7796C107.307 11.9062 107.16 12.0907 107.056 12.3332C106.953 12.574 106.901 12.8666 106.901 13.2111C106.901 13.5573 106.951 13.8526 107.051 14.0968C107.151 14.3411 107.296 14.5274 107.486 14.6557C107.676 14.784 107.906 14.8482 108.177 14.8482C108.416 14.8482 108.618 14.8095 108.783 14.7322C108.95 14.6531 109.077 14.5415 109.163 14.3974C109.249 14.2533 109.292 14.0837 109.292 13.8886L109.534 13.9176H108.222V12.9659H110.549V13.6803C110.549 14.1636 110.446 14.5775 110.241 14.922C110.037 15.2664 109.756 15.5309 109.397 15.7155C109.041 15.9 108.63 15.9923 108.166 15.9923C107.651 15.9923 107.199 15.8807 106.809 15.6575C106.418 15.4343 106.114 15.1162 105.896 14.7032C105.678 14.2884 105.57 13.7963 105.57 13.2269C105.57 12.784 105.635 12.3912 105.767 12.0485C105.899 11.7041 106.083 11.4123 106.318 11.1733C106.555 10.9343 106.83 10.7533 107.141 10.6302C107.454 10.5072 107.79 10.4457 108.15 10.4457C108.463 10.4457 108.754 10.4905 109.023 10.5802C109.294 10.6698 109.533 10.7963 109.74 10.9598C109.949 11.1232 110.119 11.3174 110.249 11.5424C110.379 11.7673 110.46 12.0142 110.491 12.2831H109.171ZM22.586 25.9185H20.5904V20.5195H22.5834C23.1334 20.5195 23.6071 20.6276 24.0043 20.8438C24.4032 21.0582 24.7108 21.3675 24.9269 21.7717C25.1431 22.1742 25.2512 22.6557 25.2512 23.2164C25.2512 23.7787 25.1431 24.262 24.9269 24.6663C24.7125 25.0705 24.4058 25.3807 24.0069 25.5968C23.608 25.8113 23.1343 25.9185 22.586 25.9185ZM21.8953 24.806H22.5359C22.8382 24.806 23.0939 24.755 23.303 24.6531C23.5139 24.5494 23.673 24.3816 23.7802 24.1496C23.8891 23.9158 23.9436 23.6048 23.9436 23.2164C23.9436 22.828 23.8891 22.5186 23.7802 22.2884C23.6712 22.0564 23.5104 21.8895 23.2978 21.7875C23.0869 21.6838 22.8268 21.632 22.5174 21.632H21.8953V24.806ZM27.318 20.5195V25.9185H26.013V20.5195H27.318ZM28.1372 25.9185V20.5195H31.9016V21.5793H29.4421V22.6865H31.7092V23.7489H29.4421V24.8587H31.9016V25.9185H28.1372ZM32.5422 21.5793V20.5195H37.1055V21.5793H35.4684V25.9185H34.182V21.5793H32.5422ZM44.2384 22.4756H42.9203C42.9027 22.3403 42.8667 22.2181 42.8122 22.1092C42.7577 22.0002 42.6857 21.907 42.596 21.8297C42.5064 21.7524 42.4001 21.6935 42.2771 21.6531C42.1558 21.6109 42.0214 21.5898 41.8737 21.5898C41.6119 21.5898 41.386 21.654 41.1962 21.7823C41.0082 21.9106 40.8632 22.096 40.7612 22.3385C40.6611 22.581 40.611 22.8745 40.611 23.219C40.611 23.5775 40.662 23.878 40.7639 24.1206C40.8676 24.3613 41.0126 24.5432 41.1989 24.6663C41.3869 24.7875 41.6092 24.8482 41.8658 24.8482C42.0099 24.8482 42.1409 24.8297 42.2586 24.7928C42.3781 24.7559 42.4827 24.7023 42.5723 24.632C42.6637 24.5599 42.7384 24.4729 42.7964 24.371C42.8561 24.2673 42.8974 24.1504 42.9203 24.0204L44.2384 24.0283C44.2155 24.2673 44.1461 24.5028 44.0301 24.7348C43.9159 24.9668 43.7586 25.1786 43.5583 25.3701C43.3579 25.5599 43.1136 25.7111 42.8254 25.8236C42.5389 25.936 42.2103 25.9923 41.8395 25.9923C41.3509 25.9923 40.9133 25.8851 40.5266 25.6707C40.1417 25.4545 39.8377 25.1399 39.6145 24.7269C39.3913 24.3139 39.2797 23.8113 39.2797 23.219C39.2797 22.625 39.3931 22.1215 39.6198 21.7085C39.8465 21.2954 40.1532 20.9817 40.5398 20.7673C40.9265 20.5529 41.3597 20.4457 41.8395 20.4457C42.1663 20.4457 42.4686 20.4914 42.7463 20.5828C43.024 20.6724 43.2683 20.8042 43.4792 20.9782C43.6901 21.1505 43.8614 21.3622 43.9932 21.6135C44.125 21.8649 44.2068 22.1522 44.2384 22.4756ZM50.0809 23.219C50.0809 23.813 49.9666 24.3165 49.7382 24.7295C49.5097 25.1425 49.2004 25.4562 48.8102 25.6707C48.4218 25.8851 47.986 25.9923 47.5027 25.9923C47.0176 25.9923 46.5809 25.8842 46.1925 25.668C45.8041 25.4519 45.4956 25.1381 45.2672 24.7269C45.0405 24.3139 44.9271 23.8113 44.9271 23.219C44.9271 22.625 45.0405 22.1215 45.2672 21.7085C45.4956 21.2954 45.8041 20.9817 46.1925 20.7673C46.5809 20.5529 47.0176 20.4457 47.5027 20.4457C47.986 20.4457 48.4218 20.5529 48.8102 20.7673C49.2004 20.9817 49.5097 21.2954 49.7382 21.7085C49.9666 22.1215 50.0809 22.625 50.0809 23.219ZM48.7469 23.219C48.7469 22.8675 48.6969 22.5705 48.5967 22.328C48.4983 22.0854 48.3559 21.9018 48.1696 21.777C47.9851 21.6522 47.7628 21.5898 47.5027 21.5898C47.2443 21.5898 47.022 21.6522 46.8357 21.777C46.6494 21.9018 46.5062 22.0854 46.406 22.328C46.3076 22.5705 46.2584 22.8675 46.2584 23.219C46.2584 23.5705 46.3076 23.8675 46.406 24.11C46.5062 24.3526 46.6494 24.5362 46.8357 24.661C47.022 24.7858 47.2443 24.8482 47.5027 24.8482C47.7628 24.8482 47.9851 24.7858 48.1696 24.661C48.3559 24.5362 48.4983 24.3526 48.5967 24.11C48.6969 23.8675 48.7469 23.5705 48.7469 23.219ZM50.8427 25.9185V20.5195H52.1476V22.8025H52.2188L54.0035 20.5195H55.5404L53.6266 22.929L55.5747 25.9185H54.0141L52.6696 23.7963L52.1476 24.4554V25.9185H50.8427ZM56.0551 25.9185V20.5195H59.8196V21.5793H57.3601V22.6865H59.6272V23.7489H57.3601V24.8587H59.8196V25.9185H56.0551ZM63.3996 25.9185H61.9971L63.8187 20.5195H65.556L67.3776 25.9185H65.9752L64.7071 21.8798H64.665L63.3996 25.9185ZM63.2124 23.7937H66.1439V24.7849H63.2124V23.7937ZM67.1081 21.5793V20.5195H71.6713V21.5793H70.0342V25.9185H68.7478V21.5793H67.1081ZM82.4507 29.5195V34.9185H81.1458V29.5195H82.4507ZM87.8648 29.5195V34.9185H86.7576L84.6091 31.8025H84.5748V34.9185H83.2699V29.5195H84.393L86.5177 32.6302H86.5625V29.5195H87.8648ZM91.5746 34.9185L90.0034 29.5195H91.4454L92.26 33.0573H92.3048L93.2354 29.5195H94.4112L95.3417 33.0652H95.3866L96.2038 29.5195H97.6431L96.0746 34.9185H94.8171L93.8444 31.6443H93.8022L92.8294 34.9185H91.5746ZM98.1822 34.9185V29.5195H101.947V30.5793H99.4872V31.6865H101.754V32.7489H99.4872V33.8587H101.947V34.9185H98.1822ZM105.682 31.1382C105.665 30.9448 105.586 30.7946 105.448 30.6874C105.311 30.5784 105.115 30.5239 104.86 30.5239C104.691 30.5239 104.55 30.5459 104.438 30.5898C104.325 30.6338 104.241 30.6944 104.185 30.7717C104.129 30.8473 104.1 30.9343 104.098 31.0327C104.094 31.1135 104.11 31.1847 104.145 31.2462C104.182 31.3077 104.235 31.3622 104.303 31.4097C104.374 31.4554 104.458 31.4958 104.557 31.5309C104.655 31.5661 104.766 31.5968 104.889 31.6232L105.353 31.7287C105.62 31.7867 105.855 31.864 106.059 31.9606C106.265 32.0573 106.437 32.1724 106.576 32.306C106.716 32.4396 106.823 32.5933 106.895 32.7673C106.967 32.9413 107.004 33.1364 107.006 33.3526C107.004 33.6935 106.918 33.9861 106.747 34.2304C106.577 34.4747 106.332 34.6619 106.012 34.7919C105.694 34.922 105.31 34.987 104.86 34.987C104.408 34.987 104.014 34.9193 103.679 34.784C103.343 34.6487 103.082 34.4431 102.896 34.1671C102.709 33.8912 102.614 33.5424 102.608 33.1206H103.858C103.869 33.2946 103.915 33.4396 103.998 33.5555C104.08 33.6715 104.194 33.7594 104.338 33.8192C104.484 33.8789 104.652 33.9088 104.844 33.9088C105.02 33.9088 105.169 33.8851 105.292 33.8376C105.417 33.7902 105.513 33.7243 105.579 33.6399C105.646 33.5555 105.68 33.4589 105.682 33.3499C105.68 33.248 105.649 33.161 105.587 33.0889C105.526 33.0151 105.431 32.9519 105.303 32.8991C105.176 32.8446 105.014 32.7946 104.818 32.7489L104.253 32.6171C103.786 32.5099 103.418 32.3367 103.149 32.0977C102.88 31.857 102.746 31.5318 102.748 31.1223C102.746 30.7884 102.836 30.4958 103.017 30.2445C103.198 29.9932 103.448 29.7972 103.768 29.6566C104.088 29.516 104.453 29.4457 104.862 29.4457C105.281 29.4457 105.644 29.5169 105.951 29.6592C106.26 29.7998 106.5 29.9976 106.671 30.2524C106.841 30.5072 106.928 30.8025 106.932 31.1382H105.682ZM107.488 30.5793V29.5195H112.051V30.5793H110.414V34.9185H109.128V30.5793H107.488ZM23.7766 44.9185V39.5195H25.0815V41.6865H27.2089V39.5195H28.5112V44.9185H27.2089V42.7489H25.0815V44.9185H23.7766ZM34.4255 42.219C34.4255 42.813 34.3112 43.3165 34.0828 43.7295C33.8543 44.1425 33.545 44.4562 33.1548 44.6707C32.7664 44.8851 32.3306 44.9923 31.8473 44.9923C31.3622 44.9923 30.9255 44.8842 30.5371 44.668C30.1487 44.4519 29.8403 44.1381 29.6118 43.7269C29.3851 43.3139 29.2717 42.8113 29.2717 42.219C29.2717 41.625 29.3851 41.1215 29.6118 40.7085C29.8403 40.2954 30.1487 39.9817 30.5371 39.7673C30.9255 39.5529 31.3622 39.4457 31.8473 39.4457C32.3306 39.4457 32.7664 39.5529 33.1548 39.7673C33.545 39.9817 33.8543 40.2954 34.0828 40.7085C34.3112 41.1215 34.4255 41.625 34.4255 42.219ZM33.0916 42.219C33.0916 41.8675 33.0415 41.5705 32.9413 41.328C32.8429 41.0854 32.7005 40.9018 32.5142 40.777C32.3297 40.6522 32.1074 40.5898 31.8473 40.5898C31.5889 40.5898 31.3666 40.6522 31.1803 40.777C30.994 40.9018 30.8508 41.0854 30.7506 41.328C30.6522 41.5705 30.603 41.8675 30.603 42.219C30.603 42.5705 30.6522 42.8675 30.7506 43.11C30.8508 43.3526 30.994 43.5362 31.1803 43.661C31.3666 43.7858 31.5889 43.8482 31.8473 43.8482C32.1074 43.8482 32.3297 43.7858 32.5142 43.661C32.7005 43.5362 32.8429 43.3526 32.9413 43.11C33.0415 42.8675 33.0916 42.5705 33.0916 42.219ZM35.1873 44.9185V39.5195H36.4923V43.8587H38.7383V44.9185H35.1873ZM39.4138 44.9185V39.5195H40.7187V43.8587H42.9648V44.9185H39.4138ZM42.5377 39.5195H43.9955L45.137 41.7787H45.1845L46.3259 39.5195H47.7838L45.8092 43.1153V44.9185H44.5122V43.1153L42.5377 39.5195ZM49.6251 44.9185L48.054 39.5195H49.496L50.3105 43.0573H50.3554L51.2859 39.5195H52.4617L53.3923 43.0652H53.4371L54.2543 39.5195H55.6937L54.1251 44.9185H52.8677L51.8949 41.6443H51.8527L50.88 44.9185H49.6251ZM61.0096 42.219C61.0096 42.813 60.8953 43.3165 60.6668 43.7295C60.4384 44.1425 60.1291 44.4562 59.7389 44.6707C59.3505 44.8851 58.9147 44.9923 58.4314 44.9923C57.9463 44.9923 57.5096 44.8842 57.1212 44.668C56.7328 44.4519 56.4243 44.1381 56.1959 43.7269C55.9691 43.3139 55.8558 42.8113 55.8558 42.219C55.8558 41.625 55.9691 41.1215 56.1959 40.7085C56.4243 40.2954 56.7328 39.9817 57.1212 39.7673C57.5096 39.5529 57.9463 39.4457 58.4314 39.4457C58.9147 39.4457 59.3505 39.5529 59.7389 39.7673C60.1291 39.9817 60.4384 40.2954 60.6668 40.7085C60.8953 41.1215 61.0096 41.625 61.0096 42.219ZM59.6756 42.219C59.6756 41.8675 59.6255 41.5705 59.5254 41.328C59.427 41.0854 59.2846 40.9018 59.0983 40.777C58.9138 40.6522 58.6915 40.5898 58.4314 40.5898C58.173 40.5898 57.9507 40.6522 57.7644 40.777C57.5781 40.9018 57.4349 41.0854 57.3347 41.328C57.2363 41.5705 57.1871 41.8675 57.1871 42.219C57.1871 42.5705 57.2363 42.8675 57.3347 43.11C57.4349 43.3526 57.5781 43.5362 57.7644 43.661C57.9507 43.7858 58.173 43.8482 58.4314 43.8482C58.6915 43.8482 58.9138 43.7858 59.0983 43.661C59.2846 43.5362 59.427 43.3526 59.5254 43.11C59.6255 42.8675 59.6756 42.5705 59.6756 42.219ZM66.8672 42.219C66.8672 42.813 66.7529 43.3165 66.5245 43.7295C66.296 44.1425 65.9867 44.4562 65.5965 44.6707C65.2081 44.8851 64.7723 44.9923 64.289 44.9923C63.8039 44.9923 63.3672 44.8842 62.9788 44.668C62.5904 44.4519 62.282 44.1381 62.0535 43.7269C61.8268 43.3139 61.7134 42.8113 61.7134 42.219C61.7134 41.625 61.8268 41.1215 62.0535 40.7085C62.282 40.2954 62.5904 39.9817 62.9788 39.7673C63.3672 39.5529 63.8039 39.4457 64.289 39.4457C64.7723 39.4457 65.2081 39.5529 65.5965 39.7673C65.9867 39.9817 66.296 40.2954 66.5245 40.7085C66.7529 41.1215 66.8672 41.625 66.8672 42.219ZM65.5333 42.219C65.5333 41.8675 65.4832 41.5705 65.383 41.328C65.2846 41.0854 65.1422 40.9018 64.9559 40.777C64.7714 40.6522 64.5491 40.5898 64.289 40.5898C64.0306 40.5898 63.8083 40.6522 63.622 40.777C63.4357 40.9018 63.2925 41.0854 63.1923 41.328C63.0939 41.5705 63.0447 41.8675 63.0447 42.219C63.0447 42.5705 63.0939 42.8675 63.1923 43.11C63.2925 43.3526 63.4357 43.5362 63.622 43.661C63.8083 43.7858 64.0306 43.8482 64.289 43.8482C64.5491 43.8482 64.7714 43.7858 64.9559 43.661C65.1422 43.5362 65.2846 43.3526 65.383 43.11C65.4832 42.8675 65.5333 42.5705 65.5333 42.219ZM69.6246 44.9185H67.629V39.5195H69.622C70.1721 39.5195 70.6457 39.6276 71.0429 39.8438C71.4419 40.0582 71.7494 40.3675 71.9656 40.7717C72.1818 41.1742 72.2898 41.6557 72.2898 42.2164C72.2898 42.7787 72.1818 43.262 71.9656 43.6663C71.7512 44.0705 71.4445 44.3807 71.0456 44.5968C70.6466 44.8113 70.173 44.9185 69.6246 44.9185ZM68.934 43.806H69.5746C69.8768 43.806 70.1326 43.755 70.3417 43.6531C70.5526 43.5494 70.7116 43.3816 70.8188 43.1496C70.9278 42.9158 70.9823 42.6048 70.9823 42.2164C70.9823 41.828 70.9278 41.5186 70.8188 41.2884C70.7099 41.0564 70.5491 40.8895 70.3364 40.7875C70.1255 40.6838 69.8654 40.632 69.5561 40.632H68.934V43.806ZM75.941 44.9185L74.3698 39.5195H75.8118L76.6264 43.0573H76.6712L77.6018 39.5195H78.7775L79.7081 43.0652H79.7529L80.5701 39.5195H82.0095L80.441 44.9185H79.1835L78.2107 41.6443H78.1686L77.1958 44.9185H75.941ZM82.5486 44.9185V39.5195H83.8535V41.6865H85.9809V39.5195H87.2832V44.9185H85.9809V42.7489H83.8535V44.9185H82.5486ZM89.4067 39.5195V44.9185H88.1018V39.5195H89.4067ZM90.2259 44.9185V39.5195H91.5308V43.8587H93.7768V44.9185H90.2259ZM94.4523 44.9185V39.5195H98.2168V40.5793H95.7573V41.6865H98.0244V42.7489H95.7573V43.8587H98.2168V44.9185H94.4523ZM24.433 49.5195H25.7194V53.2524C25.7177 53.6021 25.6342 53.9079 25.469 54.1698C25.3038 54.4299 25.0753 54.632 24.7836 54.7761C24.4936 54.9202 24.1579 54.9923 23.7766 54.9923C23.4391 54.9923 23.1325 54.9334 22.8565 54.8156C22.5824 54.6979 22.3636 54.5151 22.2001 54.2673C22.0384 54.0195 21.9585 53.7023 21.9602 53.3156H23.2599C23.2651 53.4545 23.2915 53.5731 23.339 53.6715C23.3882 53.7682 23.4558 53.8411 23.5419 53.8903C23.6281 53.9395 23.7309 53.9642 23.8504 53.9642C23.9752 53.9642 24.0806 53.9378 24.1667 53.8851C24.2528 53.8306 24.3179 53.7506 24.3618 53.6452C24.4075 53.5397 24.4312 53.4088 24.433 53.2524V49.5195ZM31.6344 52.219C31.6344 52.813 31.5202 53.3165 31.2917 53.7295C31.0632 54.1425 30.7539 54.4562 30.3638 54.6707C29.9754 54.8851 29.5395 54.9923 29.0562 54.9923C28.5711 54.9923 28.1344 54.8842 27.746 54.668C27.3576 54.4519 27.0492 54.1381 26.8207 53.7269C26.594 53.3139 26.4806 52.8113 26.4806 52.219C26.4806 51.625 26.594 51.1215 26.8207 50.7085C27.0492 50.2954 27.3576 49.9817 27.746 49.7673C28.1344 49.5529 28.5711 49.4457 29.0562 49.4457C29.5395 49.4457 29.9754 49.5529 30.3638 49.7673C30.7539 49.9817 31.0632 50.2954 31.2917 50.7085C31.5202 51.1215 31.6344 51.625 31.6344 52.219ZM30.3005 52.219C30.3005 51.8675 30.2504 51.5705 30.1502 51.328C30.0518 51.0854 29.9095 50.9018 29.7232 50.777C29.5386 50.6522 29.3163 50.5898 29.0562 50.5898C28.7979 50.5898 28.5755 50.6522 28.3893 50.777C28.203 50.9018 28.0597 51.0854 27.9596 51.328C27.8611 51.5705 27.8119 51.8675 27.8119 52.219C27.8119 52.5705 27.8611 52.8675 27.9596 53.11C28.0597 53.3526 28.203 53.5362 28.3893 53.661C28.5755 53.7858 28.7979 53.8482 29.0562 53.8482C29.3163 53.8482 29.5386 53.7858 29.7232 53.661C29.9095 53.5362 30.0518 53.3526 30.1502 53.11C30.2504 52.8675 30.3005 52.5705 30.3005 52.219ZM33.7012 49.5195V54.9185H32.3963V49.5195H33.7012ZM39.1153 49.5195V54.9185H38.0081L35.8596 51.8025H35.8253V54.9185H34.5204V49.5195H35.6434L37.7682 52.6302H37.813V49.5195H39.1153ZM41.2407 49.5195V54.9185H39.9358V49.5195H41.2407ZM46.6548 49.5195V54.9185H45.5476L43.3991 51.8025H43.3648V54.9185H42.0599V49.5195H43.1829L45.3077 52.6302H45.3525V49.5195H46.6548ZM51.0184 51.2831C50.9885 51.1724 50.9446 51.0749 50.8866 50.9905C50.8286 50.9044 50.7574 50.8315 50.673 50.7717C50.5887 50.712 50.492 50.6671 50.383 50.6373C50.2741 50.6056 50.1546 50.5898 50.0245 50.5898C49.7627 50.5898 49.5359 50.6531 49.3444 50.7796C49.1546 50.9062 49.0078 51.0907 48.9041 51.3332C48.8004 51.574 48.7486 51.8666 48.7486 52.2111C48.7486 52.5573 48.7987 52.8526 48.8989 53.0968C48.999 53.3411 49.144 53.5274 49.3338 53.6557C49.5236 53.784 49.7539 53.8482 50.0245 53.8482C50.2635 53.8482 50.4656 53.8095 50.6308 53.7322C50.7978 53.6531 50.9243 53.5415 51.0105 53.3974C51.0966 53.2533 51.1396 53.0837 51.1396 52.8886L51.3822 52.9176H50.0693V51.9659H52.3971V52.6803C52.3971 53.1636 52.2943 53.5775 52.0887 53.922C51.8848 54.2664 51.6036 54.5309 51.2451 54.7155C50.8883 54.9 50.4779 54.9923 50.014 54.9923C49.499 54.9923 49.0465 54.8807 48.6563 54.6575C48.2662 54.4343 47.9621 54.1162 47.7442 53.7032C47.5263 53.2884 47.4173 52.7963 47.4173 52.2269C47.4173 51.784 47.4832 51.3912 47.615 51.0485C47.7468 50.7041 47.9305 50.4123 48.166 50.1733C48.4033 49.9343 48.6774 49.7533 48.9885 49.6302C49.3013 49.5072 49.6379 49.4457 49.9982 49.4457C50.311 49.4457 50.6018 49.4905 50.8707 49.5802C51.1414 49.6698 51.3804 49.7963 51.5878 49.9598C51.7969 50.1232 51.9665 50.3174 52.0966 50.5424C52.2266 50.7673 52.3075 51.0142 52.3391 51.2831H51.0184ZM55.9289 54.9185H54.5265L56.3481 49.5195H58.0854L59.907 54.9185H58.5045L57.2365 50.8798H57.1943L55.9289 54.9185ZM55.7418 52.7937H58.6732V53.7849H55.7418V52.7937ZM65.6262 51.2831C65.5963 51.1724 65.5524 51.0749 65.4944 50.9905C65.4364 50.9044 65.3652 50.8315 65.2809 50.7717C65.1965 50.712 65.0998 50.6671 64.9909 50.6373C64.8819 50.6056 64.7624 50.5898 64.6323 50.5898C64.3705 50.5898 64.1438 50.6531 63.9522 50.7796C63.7624 50.9062 63.6157 51.0907 63.512 51.3332C63.4083 51.574 63.3564 51.8666 63.3564 52.2111C63.3564 52.5573 63.4065 52.8526 63.5067 53.0968C63.6069 53.3411 63.7519 53.5274 63.9417 53.6557C64.1315 53.784 64.3617 53.8482 64.6323 53.8482C64.8714 53.8482 65.0735 53.8095 65.2387 53.7322C65.4056 53.6531 65.5322 53.5415 65.6183 53.3974C65.7044 53.2533 65.7475 53.0837 65.7475 52.8886L65.99 52.9176H64.6772V51.9659H67.0049V52.6803C67.0049 53.1636 66.9021 53.5775 66.6965 53.922C66.4926 54.2664 66.2114 54.5309 65.8529 54.7155C65.4961 54.9 65.0858 54.9923 64.6218 54.9923C64.1069 54.9923 63.6543 54.8807 63.2642 54.6575C62.874 54.4343 62.57 54.1162 62.352 53.7032C62.1341 53.2884 62.0251 52.7963 62.0251 52.2269C62.0251 51.784 62.0911 51.3912 62.2229 51.0485C62.3547 50.7041 62.5383 50.4123 62.7738 50.1733C63.0111 49.9343 63.2853 49.7533 63.5963 49.6302C63.9092 49.5072 64.2457 49.4457 64.606 49.4457C64.9188 49.4457 65.2097 49.4905 65.4786 49.5802C65.7492 49.6698 65.9882 49.7963 66.1956 49.9598C66.4048 50.1232 66.5743 50.3174 66.7044 50.5424C66.8345 50.7673 66.9153 51.0142 66.9469 51.2831H65.6262ZM67.774 54.9185V49.5195H70.0043C70.4085 49.5195 70.7573 49.5925 71.0508 49.7383C71.3461 49.8824 71.5737 50.0898 71.7336 50.3605C71.8935 50.6294 71.9735 50.9483 71.9735 51.3174C71.9735 51.6918 71.8918 52.0099 71.7283 52.2717C71.5649 52.5318 71.3329 52.7304 71.0324 52.8675C70.7318 53.0028 70.376 53.0705 69.9647 53.0705H68.5544V52.0424H69.7222C69.919 52.0424 70.0833 52.0169 70.2152 51.9659C70.3487 51.9132 70.4498 51.8341 70.5183 51.7287C70.5869 51.6215 70.6211 51.4844 70.6211 51.3174C70.6211 51.1505 70.5869 51.0125 70.5183 50.9035C70.4498 50.7928 70.3487 50.7102 70.2152 50.6557C70.0816 50.5995 69.9173 50.5714 69.7222 50.5714H69.079V54.9185H67.774ZM70.8136 52.451L72.158 54.9185H70.7345L69.4164 52.451H70.8136ZM77.785 52.219C77.785 52.813 77.6708 53.3165 77.4423 53.7295C77.2138 54.1425 76.9045 54.4562 76.5143 54.6707C76.1259 54.8851 75.6901 54.9923 75.2068 54.9923C74.7217 54.9923 74.285 54.8842 73.8966 54.668C73.5082 54.4519 73.1998 54.1381 72.9713 53.7269C72.7446 53.3139 72.6312 52.8113 72.6312 52.219C72.6312 51.625 72.7446 51.1215 72.9713 50.7085C73.1998 50.2954 73.5082 49.9817 73.8966 49.7673C74.285 49.5529 74.7217 49.4457 75.2068 49.4457C75.6901 49.4457 76.1259 49.5529 76.5143 49.7673C76.9045 49.9817 77.2138 50.2954 77.4423 50.7085C77.6708 51.1215 77.785 51.625 77.785 52.219ZM76.4511 52.219C76.4511 51.8675 76.401 51.5705 76.3008 51.328C76.2024 51.0854 76.06 50.9018 75.8737 50.777C75.6892 50.6522 75.4669 50.5898 75.2068 50.5898C74.9484 50.5898 74.7261 50.6522 74.5398 50.777C74.3535 50.9018 74.2103 51.0854 74.1101 51.328C74.0117 51.5705 73.9625 51.8675 73.9625 52.219C73.9625 52.5705 74.0117 52.8675 74.1101 53.11C74.2103 53.3526 74.3535 53.5362 74.5398 53.661C74.7261 53.7858 74.9484 53.8482 75.2068 53.8482C75.4669 53.8482 75.6892 53.7858 75.8737 53.661C76.06 53.5362 76.2024 53.3526 76.3008 53.11C76.401 52.8675 76.4511 52.5705 76.4511 52.219ZM81.8131 49.5195H83.1154V53.0019C83.1154 53.4044 83.0196 53.755 82.828 54.0538C82.6365 54.3508 82.3693 54.581 82.0266 54.7445C81.6839 54.9062 81.2859 54.987 80.8324 54.987C80.3737 54.987 79.973 54.9062 79.6303 54.7445C79.2876 54.581 79.0214 54.3508 78.8316 54.0538C78.6418 53.755 78.5469 53.4044 78.5469 53.0019V49.5195H79.8518V52.8886C79.8518 53.0749 79.8922 53.241 79.973 53.3868C80.0556 53.5327 80.1708 53.6469 80.3184 53.7295C80.466 53.8121 80.6374 53.8534 80.8324 53.8534C81.0275 53.8534 81.198 53.8121 81.3439 53.7295C81.4915 53.6469 81.6066 53.5327 81.6892 53.3868C81.7718 53.241 81.8131 53.0749 81.8131 52.8886V49.5195ZM83.9333 54.9185V49.5195H86.1635C86.5677 49.5195 86.9166 49.5986 87.2101 49.7568C87.5053 49.9132 87.7329 50.132 87.8928 50.4132C88.0528 50.6926 88.1327 51.0178 88.1327 51.3886C88.1327 51.7612 88.051 52.0872 87.8876 52.3666C87.7259 52.6443 87.4948 52.8596 87.1942 53.0125C86.8937 53.1654 86.537 53.2418 86.1239 53.2418H84.7479V52.2137H85.8814C86.0783 52.2137 86.2426 52.1794 86.3744 52.1109C86.508 52.0424 86.609 51.9466 86.6776 51.8236C86.7461 51.6988 86.7804 51.5538 86.7804 51.3886C86.7804 51.2216 86.7461 51.0775 86.6776 50.9563C86.609 50.8332 86.508 50.7383 86.3744 50.6715C86.2408 50.6048 86.0765 50.5714 85.8814 50.5714H85.2382V54.9185H83.9333ZM95.4666 52.219C95.4666 52.813 95.3524 53.3165 95.1239 53.7295C94.8955 54.1425 94.5861 54.4562 94.196 54.6707C93.8076 54.8851 93.3717 54.9923 92.8884 54.9923C92.4034 54.9923 91.9666 54.8842 91.5782 54.668C91.1898 54.4519 90.8814 54.1381 90.6529 53.7269C90.4262 53.3139 90.3129 52.8113 90.3129 52.219C90.3129 51.625 90.4262 51.1215 90.6529 50.7085C90.8814 50.2954 91.1898 49.9817 91.5782 49.7673C91.9666 49.5529 92.4034 49.4457 92.8884 49.4457C93.3717 49.4457 93.8076 49.5529 94.196 49.7673C94.5861 49.9817 94.8955 50.2954 95.1239 50.7085C95.3524 51.1215 95.4666 51.625 95.4666 52.219ZM94.1327 52.219C94.1327 51.8675 94.0826 51.5705 93.9825 51.328C93.884 51.0854 93.7417 50.9018 93.5554 50.777C93.3709 50.6522 93.1485 50.5898 92.8884 50.5898C92.6301 50.5898 92.4078 50.6522 92.2215 50.777C92.0352 50.9018 91.8919 51.0854 91.7918 51.328C91.6934 51.5705 91.6441 51.8675 91.6441 52.219C91.6441 52.5705 91.6934 52.8675 91.7918 53.11C91.8919 53.3526 92.0352 53.5362 92.2215 53.661C92.4078 53.7858 92.6301 53.8482 92.8884 53.8482C93.1485 53.8482 93.3709 53.7858 93.5554 53.661C93.7417 53.5362 93.884 53.3526 93.9825 53.11C94.0826 52.8675 94.1327 52.5705 94.1327 52.219ZM96.2285 54.9185V49.5195H99.9139V50.5793H97.5334V51.6865H99.6793V52.7489H97.5334V54.9185H96.2285ZM21.7104 64.9185V59.5195H25.3958V60.5793H23.0154V61.6865H25.1612V62.7489H23.0154V64.9185H21.7104ZM26.0529 64.9185V59.5195H28.2831C28.6874 59.5195 29.0362 59.5925 29.3297 59.7383C29.625 59.8824 29.8526 60.0898 30.0125 60.3605C30.1724 60.6294 30.2524 60.9483 30.2524 61.3174C30.2524 61.6918 30.1707 62.0099 30.0072 62.2717C29.8438 62.5318 29.6118 62.7304 29.3113 62.8675C29.0107 63.0028 28.6548 63.0705 28.2436 63.0705H26.8332V62.0424H28.0011C28.1979 62.0424 28.3622 62.0169 28.494 61.9659C28.6276 61.9132 28.7287 61.8341 28.7972 61.7287C28.8657 61.6215 28.9 61.4844 28.9 61.3174C28.9 61.1505 28.8657 61.0125 28.7972 60.9035C28.7287 60.7928 28.6276 60.7102 28.494 60.6557C28.3605 60.5995 28.1961 60.5714 28.0011 60.5714H27.3578V64.9185H26.0529ZM29.0925 62.451L30.4369 64.9185H29.0134L27.6953 62.451H29.0925ZM32.273 59.5195V64.9185H30.9681V59.5195H32.273ZM33.0922 64.9185V59.5195H36.8567V60.5793H34.3971V61.6865H36.6643V62.7489H34.3971V63.8587H36.8567V64.9185H33.0922ZM42.2688 59.5195V64.9185H41.1616L39.0131 61.8025H38.9789V64.9185H37.6739V59.5195H38.797L40.9217 62.6302H40.9665V59.5195H42.2688ZM45.0849 64.9185H43.0893V59.5195H45.0823C45.6324 59.5195 46.106 59.6276 46.5032 59.8438C46.9022 60.0582 47.2097 60.3675 47.4259 60.7717C47.6421 61.1742 47.7501 61.6557 47.7501 62.2164C47.7501 62.7787 47.6421 63.262 47.4259 63.6663C47.2115 64.0705 46.9048 64.3807 46.5059 64.5968C46.1069 64.8113 45.6333 64.9185 45.0849 64.9185ZM44.3943 63.806H45.0349C45.3371 63.806 45.5929 63.755 45.802 63.6531C46.0129 63.5494 46.1719 63.3816 46.2791 63.1496C46.3881 62.9158 46.4426 62.6048 46.4426 62.2164C46.4426 61.828 46.3881 61.5186 46.2791 61.2884C46.1702 61.0564 46.0094 60.8895 45.7967 60.7875C45.5858 60.6838 45.3257 60.632 45.0164 60.632H44.3943V63.806ZM51.4303 61.1382C51.4127 60.9448 51.3345 60.7946 51.1957 60.6874C51.0586 60.5784 50.8626 60.5239 50.6078 60.5239C50.4391 60.5239 50.2985 60.5459 50.186 60.5898C50.0735 60.6338 49.9892 60.6944 49.9329 60.7717C49.8767 60.8473 49.8477 60.9343 49.8459 61.0327C49.8424 61.1135 49.8582 61.1847 49.8934 61.2462C49.9303 61.3077 49.983 61.3622 50.0515 61.4097C50.1218 61.4554 50.2062 61.4958 50.3046 61.5309C50.403 61.5661 50.5138 61.5968 50.6368 61.6232L51.1007 61.7287C51.3679 61.7867 51.6034 61.864 51.8073 61.9606C52.0129 62.0573 52.1851 62.1724 52.3239 62.306C52.4645 62.4396 52.5709 62.5933 52.6429 62.7673C52.715 62.9413 52.7519 63.1364 52.7536 63.3526C52.7519 63.6935 52.6658 63.9861 52.4953 64.2304C52.3248 64.4747 52.0797 64.6619 51.7598 64.7919C51.4417 64.922 51.0577 64.987 50.6078 64.987C50.1561 64.987 49.7624 64.9193 49.4268 64.784C49.0911 64.6487 48.8301 64.4431 48.6438 64.1671C48.4575 63.8912 48.3617 63.5424 48.3565 63.1206H49.606C49.6166 63.2946 49.6631 63.4396 49.7457 63.5555C49.8283 63.6715 49.9417 63.7594 50.0858 63.8192C50.2317 63.8789 50.4004 63.9088 50.592 63.9088C50.7677 63.9088 50.9171 63.8851 51.0401 63.8376C51.1649 63.7902 51.2607 63.7243 51.3275 63.6399C51.3942 63.5555 51.4285 63.4589 51.4303 63.3499C51.4285 63.248 51.3969 63.161 51.3354 63.0889C51.2739 63.0151 51.179 62.9519 51.0507 62.8991C50.9241 62.8446 50.7624 62.7946 50.5656 62.7489L50.0015 62.6171C49.534 62.5099 49.1658 62.3367 48.8969 62.0977C48.628 61.857 48.4944 61.5318 48.4962 61.1223C48.4944 60.7884 48.5841 60.4958 48.7651 60.2445C48.9461 59.9932 49.1965 59.7972 49.5164 59.6566C49.8363 59.516 50.2009 59.4457 50.6104 59.4457C51.0287 59.4457 51.3916 59.5169 51.6992 59.6592C52.0085 59.7998 52.2484 59.9976 52.4188 60.2524C52.5893 60.5072 52.6763 60.8025 52.6798 61.1382H51.4303ZM54.831 60.5793V59.5195H59.3942V60.5793H57.7571V64.9185H56.4707V60.5793H54.831ZM64.8808 62.219C64.8808 62.813 64.7666 63.3165 64.5381 63.7295C64.3096 64.1425 64.0003 64.4562 63.6102 64.6707C63.2218 64.8851 62.7859 64.9923 62.3026 64.9923C61.8175 64.9923 61.3808 64.8842 60.9924 64.668C60.604 64.4519 60.2956 64.1381 60.0671 63.7269C59.8404 63.3139 59.727 62.8113 59.727 62.219C59.727 61.625 59.8404 61.1215 60.0671 60.7085C60.2956 60.2954 60.604 59.9817 60.9924 59.7673C61.3808 59.5529 61.8175 59.4457 62.3026 59.4457C62.7859 59.4457 63.2218 59.5529 63.6102 59.7673C64.0003 59.9817 64.3096 60.2954 64.5381 60.7085C64.7666 61.1215 64.8808 61.625 64.8808 62.219ZM63.5469 62.219C63.5469 61.8675 63.4968 61.5705 63.3966 61.328C63.2982 61.0854 63.1559 60.9018 62.9696 60.777C62.785 60.6522 62.5627 60.5898 62.3026 60.5898C62.0443 60.5898 61.8219 60.6522 61.6357 60.777C61.4494 60.9018 61.3061 61.0854 61.206 61.328C61.1075 61.5705 61.0583 61.8675 61.0583 62.219C61.0583 62.5705 61.1075 62.8675 61.206 63.11C61.3061 63.3526 61.4494 63.5362 61.6357 63.661C61.8219 63.7858 62.0443 63.8482 62.3026 63.8482C62.5627 63.8482 62.785 63.7858 62.9696 63.661C63.1559 63.5362 63.2982 63.3526 63.3966 63.11C63.4968 62.8675 63.5469 62.5705 63.5469 62.219ZM72.1383 61.4756H70.8202C70.8026 61.3403 70.7666 61.2181 70.7121 61.1092C70.6576 61.0002 70.5855 60.907 70.4959 60.8297C70.4063 60.7524 70.2999 60.6935 70.1769 60.6531C70.0557 60.6109 69.9212 60.5898 69.7736 60.5898C69.5117 60.5898 69.2859 60.654 69.0961 60.7823C68.908 60.9106 68.763 61.096 68.6611 61.3385C68.5609 61.581 68.5109 61.8745 68.5109 62.219C68.5109 62.5775 68.5618 62.878 68.6637 63.1206C68.7674 63.3613 68.9124 63.5432 69.0987 63.6663C69.2868 63.7875 69.5091 63.8482 69.7657 63.8482C69.9098 63.8482 70.0407 63.8297 70.1585 63.7928C70.278 63.7559 70.3826 63.7023 70.4722 63.632C70.5636 63.5599 70.6383 63.4729 70.6963 63.371C70.756 63.2673 70.7973 63.1504 70.8202 63.0204L72.1383 63.0283C72.1154 63.2673 72.046 63.5028 71.93 63.7348C71.8158 63.9668 71.6585 64.1786 71.4581 64.3701C71.2578 64.5599 71.0135 64.7111 70.7253 64.8236C70.4388 64.936 70.1101 64.9923 69.7393 64.9923C69.2507 64.9923 68.8131 64.8851 68.4265 64.6707C68.0416 64.4545 67.7376 64.1399 67.5144 63.7269C67.2912 63.3139 67.1796 62.8113 67.1796 62.219C67.1796 61.625 67.2929 61.1215 67.5196 60.7085C67.7464 60.2954 68.053 59.9817 68.4397 59.7673C68.8263 59.5529 69.2595 59.4457 69.7393 59.4457C70.0662 59.4457 70.3685 59.4914 70.6462 59.5828C70.9238 59.6724 71.1681 59.8042 71.379 59.9782C71.5899 60.1505 71.7613 60.3622 71.8931 60.6135C72.0249 60.8649 72.1066 61.1522 72.1383 61.4756ZM73.9151 64.9185H72.5126L74.3342 59.5195H76.0715L77.8931 64.9185H76.4906L75.2226 60.8798H75.1804L73.9151 64.9185ZM73.7279 62.7937H76.6593V63.7849H73.7279V62.7937ZM77.6235 60.5793V59.5195H82.1868V60.5793H80.5497V64.9185H79.2632V60.5793H77.6235ZM87.4783 61.4756H86.1602C86.1426 61.3403 86.1066 61.2181 86.0521 61.1092C85.9976 61.0002 85.9256 60.907 85.8359 60.8297C85.7463 60.7524 85.64 60.6935 85.517 60.6531C85.3957 60.6109 85.2613 60.5898 85.1136 60.5898C84.8518 60.5898 84.6259 60.654 84.4361 60.7823C84.2481 60.9106 84.1031 61.096 84.0011 61.3385C83.901 61.581 83.8509 61.8745 83.8509 62.219C83.8509 62.5775 83.9019 62.878 84.0038 63.1206C84.1075 63.3613 84.2525 63.5432 84.4388 63.6663C84.6268 63.7875 84.8491 63.8482 85.1057 63.8482C85.2498 63.8482 85.3808 63.8297 85.4985 63.7928C85.618 63.7559 85.7226 63.7023 85.8122 63.632C85.9036 63.5599 85.9783 63.4729 86.0363 63.371C86.096 63.2673 86.1373 63.1504 86.1602 63.0204L87.4783 63.0283C87.4554 63.2673 87.386 63.5028 87.27 63.7348C87.1558 63.9668 86.9985 64.1786 86.7982 64.3701C86.5978 64.5599 86.3535 64.7111 86.0653 64.8236C85.7788 64.936 85.4502 64.9923 85.0794 64.9923C84.5908 64.9923 84.1532 64.8851 83.7665 64.6707C83.3816 64.4545 83.0776 64.1399 82.8544 63.7269C82.6312 63.3139 82.5196 62.8113 82.5196 62.219C82.5196 61.625 82.633 61.1215 82.8597 60.7085C83.0864 60.2954 83.3931 59.9817 83.7797 59.7673C84.1663 59.5529 84.5996 59.4457 85.0794 59.4457C85.4062 59.4457 85.7085 59.4914 85.9862 59.5828C86.2639 59.6724 86.5082 59.8042 86.7191 59.9782C86.93 60.1505 87.1013 60.3622 87.2331 60.6135C87.3649 60.8649 87.4467 61.1522 87.4783 61.4756ZM88.225 64.9185V59.5195H89.5299V61.6865H91.6573V59.5195H92.9596V64.9185H91.6573V62.7489H89.5299V64.9185H88.225ZM96.5409 64.9185H95.1384L96.96 59.5195H98.6973L100.519 64.9185H99.1164L97.8484 60.8798H97.8063L96.5409 64.9185ZM96.3537 62.7937H99.2852V63.7849H96.3537V62.7937ZM12.8265 71.1382C12.8089 70.9448 12.7307 70.7946 12.5918 70.6874C12.4548 70.5784 12.2588 70.5239 12.004 70.5239C11.8353 70.5239 11.6947 70.5459 11.5822 70.5898C11.4697 70.6338 11.3853 70.6944 11.3291 70.7717C11.2729 70.8473 11.2439 70.9343 11.2421 71.0327C11.2386 71.1135 11.2544 71.1847 11.2896 71.2462C11.3265 71.3077 11.3792 71.3622 11.4477 71.4097C11.518 71.4554 11.6024 71.4958 11.7008 71.5309C11.7992 71.5661 11.9099 71.5968 12.033 71.6232L12.4969 71.7287C12.7641 71.7867 12.9996 71.864 13.2034 71.9606C13.4091 72.0573 13.5813 72.1724 13.7201 72.306C13.8607 72.4396 13.9671 72.5933 14.0391 72.7673C14.1112 72.9413 14.1481 73.1364 14.1498 73.3526C14.1481 73.6935 14.062 73.9861 13.8915 74.2304C13.721 74.4747 13.4758 74.6619 13.156 74.7919C12.8379 74.922 12.4539 74.987 12.004 74.987C11.5523 74.987 11.1586 74.9193 10.823 74.784C10.4873 74.6487 10.2263 74.4431 10.04 74.1671C9.85371 73.8912 9.75793 73.5424 9.75266 73.1206H11.0022C11.0128 73.2946 11.0593 73.4396 11.1419 73.5555C11.2245 73.6715 11.3379 73.7594 11.482 73.8192C11.6279 73.8789 11.7966 73.9088 11.9882 73.9088C12.1639 73.9088 12.3133 73.8851 12.4363 73.8376C12.5611 73.7902 12.6569 73.7243 12.7236 73.6399C12.7904 73.5555 12.8247 73.4589 12.8265 73.3499C12.8247 73.248 12.7931 73.161 12.7316 73.0889C12.67 73.0151 12.5751 72.9519 12.4468 72.8991C12.3203 72.8446 12.1586 72.7946 11.9618 72.7489L11.3976 72.6171C10.9302 72.5099 10.562 72.3367 10.2931 72.0977C10.0242 71.857 9.89062 71.5318 9.89237 71.1223C9.89062 70.7884 9.98025 70.4958 10.1613 70.2445C10.3423 69.9932 10.5927 69.7972 10.9126 69.6566C11.2324 69.516 11.5971 69.4457 12.0066 69.4457C12.4249 69.4457 12.7878 69.5169 13.0954 69.6592C13.4047 69.7998 13.6446 69.9976 13.815 70.2524C13.9855 70.5072 14.0725 70.8025 14.076 71.1382H12.8265ZM19.9047 72.219C19.9047 72.813 19.7904 73.3165 19.5619 73.7295C19.3335 74.1425 19.0242 74.4562 18.634 74.6707C18.2456 74.8851 17.8098 74.9923 17.3264 74.9923C16.8414 74.9923 16.4047 74.8842 16.0163 74.668C15.6279 74.4519 15.3194 74.1381 15.091 73.7269C14.8642 73.3139 14.7509 72.8113 14.7509 72.219C14.7509 71.625 14.8642 71.1215 15.091 70.7085C15.3194 70.2954 15.6279 69.9817 16.0163 69.7673C16.4047 69.5529 16.8414 69.4457 17.3264 69.4457C17.8098 69.4457 18.2456 69.5529 18.634 69.7673C19.0242 69.9817 19.3335 70.2954 19.5619 70.7085C19.7904 71.1215 19.9047 71.625 19.9047 72.219ZM18.5707 72.219C18.5707 71.8675 18.5206 71.5705 18.4205 71.328C18.3221 71.0854 18.1797 70.9018 17.9934 70.777C17.8089 70.6522 17.5866 70.5898 17.3264 70.5898C17.0681 70.5898 16.8458 70.6522 16.6595 70.777C16.4732 70.9018 16.33 71.0854 16.2298 71.328C16.1314 71.5705 16.0822 71.8675 16.0822 72.219C16.0822 72.5705 16.1314 72.8675 16.2298 73.11C16.33 73.3526 16.4732 73.5362 16.6595 73.661C16.8458 73.7858 17.0681 73.8482 17.3264 73.8482C17.5866 73.8482 17.8089 73.7858 17.9934 73.661C18.1797 73.5362 18.3221 73.3526 18.4205 73.11C18.5206 72.8675 18.5707 72.5705 18.5707 72.219ZM25.5672 71.4756H24.2491C24.2315 71.3403 24.1955 71.2181 24.141 71.1092C24.0865 71.0002 24.0145 70.907 23.9249 70.8297C23.8352 70.7524 23.7289 70.6935 23.6059 70.6531C23.4846 70.6109 23.3502 70.5898 23.2025 70.5898C22.9407 70.5898 22.7148 70.654 22.525 70.7823C22.337 70.9106 22.192 71.096 22.0901 71.3385C21.9899 71.581 21.9398 71.8745 21.9398 72.219C21.9398 72.5775 21.9908 72.878 22.0927 73.1206C22.1964 73.3613 22.3414 73.5432 22.5277 73.6663C22.7157 73.7875 22.938 73.8482 23.1946 73.8482C23.3387 73.8482 23.4697 73.8297 23.5874 73.7928C23.7069 73.7559 23.8115 73.7023 23.9011 73.632C23.9925 73.5599 24.0672 73.4729 24.1252 73.371C24.185 73.2673 24.2263 73.1504 24.2491 73.0204L25.5672 73.0283C25.5444 73.2673 25.4749 73.5028 25.3589 73.7348C25.2447 73.9668 25.0874 74.1786 24.8871 74.3701C24.6867 74.5599 24.4424 74.7111 24.1542 74.8236C23.8677 74.936 23.5391 74.9923 23.1683 74.9923C22.6797 74.9923 22.2421 74.8851 21.8554 74.6707C21.4706 74.4545 21.1665 74.1399 20.9433 73.7269C20.7201 73.3139 20.6085 72.8113 20.6085 72.219C20.6085 71.625 20.7219 71.1215 20.9486 70.7085C21.1753 70.2954 21.482 69.9817 21.8686 69.7673C22.2553 69.5529 22.6885 69.4457 23.1683 69.4457C23.4952 69.4457 23.7974 69.4914 24.0751 69.5828C24.3528 69.6724 24.5971 69.8042 24.808 69.9782C25.0189 70.1505 25.1902 70.3622 25.322 70.6135C25.4538 70.8649 25.5356 71.1522 25.5672 71.4756ZM31.2146 71.4756H29.8965C29.8789 71.3403 29.8429 71.2181 29.7884 71.1092C29.7339 71.0002 29.6619 70.907 29.5722 70.8297C29.4826 70.7524 29.3763 70.6935 29.2533 70.6531C29.132 70.6109 28.9976 70.5898 28.8499 70.5898C28.5881 70.5898 28.3622 70.654 28.1724 70.7823C27.9844 70.9106 27.8394 71.096 27.7375 71.3385C27.6373 71.581 27.5872 71.8745 27.5872 72.219C27.5872 72.5775 27.6382 72.878 27.7401 73.1206C27.8438 73.3613 27.9888 73.5432 28.1751 73.6663C28.3631 73.7875 28.5854 73.8482 28.842 73.8482C28.9861 73.8482 29.1171 73.8297 29.2348 73.7928C29.3543 73.7559 29.4589 73.7023 29.5485 73.632C29.6399 73.5599 29.7146 73.4729 29.7726 73.371C29.8323 73.2673 29.8736 73.1504 29.8965 73.0204L31.2146 73.0283C31.1917 73.2673 31.1223 73.5028 31.0063 73.7348C30.8921 73.9668 30.7348 74.1786 30.5345 74.3701C30.3341 74.5599 30.0898 74.7111 29.8016 74.8236C29.5151 74.936 29.1865 74.9923 28.8157 74.9923C28.3271 74.9923 27.8895 74.8851 27.5028 74.6707C27.1179 74.4545 26.8139 74.1399 26.5907 73.7269C26.3675 73.3139 26.2559 72.8113 26.2559 72.219C26.2559 71.625 26.3693 71.1215 26.596 70.7085C26.8227 70.2954 27.1294 69.9817 27.516 69.7673C27.9027 69.5529 28.3359 69.4457 28.8157 69.4457C29.1425 69.4457 29.4448 69.4914 29.7225 69.5828C30.0002 69.6724 30.2445 69.8042 30.4554 69.9782C30.6663 70.1505 30.8376 70.3622 30.9694 70.6135C31.1012 70.8649 31.183 71.1522 31.2146 71.4756ZM31.9613 74.9185V69.5195H35.7258V70.5793H33.2662V71.6865H35.5333V72.7489H33.2662V73.8587H35.7258V74.9185H31.9613ZM36.543 74.9185V69.5195H38.7732C39.1774 69.5195 39.5263 69.5925 39.8198 69.7383C40.1151 69.8824 40.3426 70.0898 40.5026 70.3605C40.6625 70.6294 40.7425 70.9483 40.7425 71.3174C40.7425 71.6918 40.6607 72.0099 40.4973 72.2717C40.3339 72.5318 40.1019 72.7304 39.8013 72.8675C39.5008 73.0028 39.1449 73.0705 38.7337 73.0705H37.3233V72.0424H38.4912C38.688 72.0424 38.8523 72.0169 38.9841 71.9659C39.1177 71.9132 39.2187 71.8341 39.2873 71.7287C39.3558 71.6215 39.3901 71.4844 39.3901 71.3174C39.3901 71.1505 39.3558 71.0125 39.2873 70.9035C39.2187 70.7928 39.1177 70.7102 38.9841 70.6557C38.8506 70.5995 38.6862 70.5714 38.4912 70.5714H37.8479V74.9185H36.543ZM39.5825 72.451L40.927 74.9185H39.5035L38.1854 72.451H39.5825ZM43.0531 69.5195H44.6691L46.0399 72.8622H46.1032L47.474 69.5195H49.09V74.9185H47.8193V71.6021H47.7745L46.4775 74.8842H45.6656L44.3686 71.5837H44.3237V74.9185H43.0531V69.5195ZM51.0718 74.9185H49.6693L51.4909 69.5195H53.2282L55.0498 74.9185H53.6473L52.3793 70.8798H52.3371L51.0718 74.9185ZM50.8846 72.7937H53.816V73.7849H50.8846V72.7937ZM54.7802 70.5793V69.5195H59.3435V70.5793H57.7064V74.9185H56.4199V70.5793H54.7802ZM64.635 71.4756H63.3169C63.2993 71.3403 63.2633 71.2181 63.2088 71.1092C63.1543 71.0002 63.0823 70.907 62.9926 70.8297C62.903 70.7524 62.7967 70.6935 62.6737 70.6531C62.5524 70.6109 62.4179 70.5898 62.2703 70.5898C62.0085 70.5898 61.7826 70.654 61.5928 70.7823C61.4048 70.9106 61.2598 71.096 61.1578 71.3385C61.0577 71.581 61.0076 71.8745 61.0076 72.219C61.0076 72.5775 61.0585 72.878 61.1605 73.1206C61.2642 73.3613 61.4092 73.5432 61.5954 73.6663C61.7835 73.7875 62.0058 73.8482 62.2624 73.8482C62.4065 73.8482 62.5375 73.8297 62.6552 73.7928C62.7747 73.7559 62.8793 73.7023 62.9689 73.632C63.0603 73.5599 63.135 73.4729 63.193 73.371C63.2527 73.2673 63.294 73.1504 63.3169 73.0204L64.635 73.0283C64.6121 73.2673 64.5427 73.5028 64.4267 73.7348C64.3125 73.9668 64.1552 74.1786 63.9548 74.3701C63.7545 74.5599 63.5102 74.7111 63.222 74.8236C62.9355 74.936 62.6069 74.9923 62.236 74.9923C61.7475 74.9923 61.3099 74.8851 60.9232 74.6707C60.5383 74.4545 60.2343 74.1399 60.0111 73.7269C59.7879 73.3139 59.6763 72.8113 59.6763 72.219C59.6763 71.625 59.7897 71.1215 60.0164 70.7085C60.2431 70.2954 60.5498 69.9817 60.9364 69.7673C61.323 69.5529 61.7563 69.4457 62.236 69.4457C62.5629 69.4457 62.8652 69.4914 63.1429 69.5828C63.4206 69.6724 63.6649 69.8042 63.8758 69.9782C64.0867 70.1505 64.258 70.3622 64.3898 70.6135C64.5216 70.8649 64.6034 71.1522 64.635 71.4756ZM65.3817 74.9185V69.5195H66.6866V71.6865H68.814V69.5195H70.1163V74.9185H68.814V72.7489H66.6866V74.9185H65.3817ZM77.6255 72.219C77.6255 72.813 77.5113 73.3165 77.2828 73.7295C77.0543 74.1425 76.745 74.4562 76.3549 74.6707C75.9665 74.8851 75.5306 74.9923 75.0473 74.9923C74.5622 74.9923 74.1255 74.8842 73.7371 74.668C73.3487 74.4519 73.0403 74.1381 72.8118 73.7269C72.5851 73.3139 72.4717 72.8113 72.4717 72.219C72.4717 71.625 72.5851 71.1215 72.8118 70.7085C73.0403 70.2954 73.3487 69.9817 73.7371 69.7673C74.1255 69.5529 74.5622 69.4457 75.0473 69.4457C75.5306 69.4457 75.9665 69.5529 76.3549 69.7673C76.745 69.9817 77.0543 70.2954 77.2828 70.7085C77.5113 71.1215 77.6255 71.625 77.6255 72.219ZM76.2916 72.219C76.2916 71.8675 76.2415 71.5705 76.1413 71.328C76.0429 71.0854 75.9006 70.9018 75.7143 70.777C75.5297 70.6522 75.3074 70.5898 75.0473 70.5898C74.789 70.5898 74.5666 70.6522 74.3803 70.777C74.1941 70.9018 74.0508 71.0854 73.9506 71.328C73.8522 71.5705 73.803 71.8675 73.803 72.219C73.803 72.5705 73.8522 72.8675 73.9506 73.11C74.0508 73.3526 74.1941 73.5362 74.3803 73.661C74.5666 73.7858 74.789 73.8482 75.0473 73.8482C75.3074 73.8482 75.5297 73.7858 75.7143 73.661C75.9006 73.5362 76.0429 73.3526 76.1413 73.11C76.2415 72.8675 76.2916 72.5705 76.2916 72.219ZM82.9823 69.5195V74.9185H81.8751L79.7266 71.8025H79.6923V74.9185H78.3874V69.5195H79.5104L81.6352 72.6302H81.68V69.5195H82.9823ZM85.221 70.5793V69.5195H89.7843V70.5793H88.1472V74.9185H86.8608V70.5793H85.221ZM90.4216 74.9185V69.5195H91.7265V71.6865H93.8539V69.5195H95.1562V74.9185H93.8539V72.7489H91.7265V74.9185H90.4216ZM95.9748 74.9185V69.5195H99.7392V70.5793H97.2797V71.6865H99.5468V72.7489H97.2797V73.8587H99.7392V74.9185H95.9748ZM101.975 70.5793V69.5195H106.538V70.5793H104.901V74.9185H103.614V70.5793H101.975ZM108.401 69.5195L109.609 73.4738H109.653L110.861 69.5195H112.321L110.5 74.9185H108.762L106.941 69.5195H108.401ZM46.8522 81.1382C46.8346 80.9448 46.7564 80.7946 46.6176 80.6874C46.4805 80.5784 46.2845 80.5239 46.0297 80.5239C45.861 80.5239 45.7204 80.5459 45.6079 80.5898C45.4954 80.6338 45.4111 80.6944 45.3548 80.7717C45.2986 80.8473 45.2696 80.9343 45.2678 81.0327C45.2643 81.1135 45.2801 81.1847 45.3153 81.2462C45.3522 81.3077 45.4049 81.3622 45.4735 81.4097C45.5438 81.4554 45.6281 81.4958 45.7265 81.5309C45.8249 81.5661 45.9357 81.5968 46.0587 81.6232L46.5227 81.7287C46.7898 81.7867 47.0253 81.864 47.2292 81.9606C47.4348 82.0573 47.607 82.1724 47.7459 82.306C47.8865 82.4396 47.9928 82.5933 48.0648 82.7673C48.1369 82.9413 48.1738 83.1364 48.1756 83.3526C48.1738 83.6935 48.0877 83.9861 47.9172 84.2304C47.7467 84.4747 47.5016 84.6619 47.1817 84.7919C46.8636 84.922 46.4796 84.987 46.0297 84.987C45.578 84.987 45.1843 84.9193 44.8487 84.784C44.513 84.6487 44.252 84.4431 44.0657 84.1671C43.8794 83.8912 43.7837 83.5424 43.7784 83.1206H45.0279C45.0385 83.2946 45.0851 83.4396 45.1677 83.5555C45.2503 83.6715 45.3636 83.7594 45.5077 83.8192C45.6536 83.8789 45.8223 83.9088 46.0139 83.9088C46.1896 83.9088 46.339 83.8851 46.462 83.8376C46.5868 83.7902 46.6826 83.7243 46.7494 83.6399C46.8162 83.5555 46.8504 83.4589 46.8522 83.3499C46.8504 83.248 46.8188 83.161 46.7573 83.0889C46.6958 83.0151 46.6009 82.9519 46.4726 82.8991C46.346 82.8446 46.1843 82.7946 45.9875 82.7489L45.4234 82.6171C44.9559 82.5099 44.5877 82.3367 44.3188 82.0977C44.0499 81.857 43.9163 81.5318 43.9181 81.1223C43.9163 80.7884 44.006 80.4958 44.187 80.2445C44.368 79.9932 44.6184 79.7972 44.9383 79.6566C45.2582 79.516 45.6228 79.4457 46.0323 79.4457C46.4506 79.4457 46.8135 79.5169 47.1211 79.6592C47.4304 79.7998 47.6703 79.9976 47.8408 80.2524C48.0112 80.5072 48.0982 80.8025 48.1017 81.1382H46.8522ZM53.7353 81.4756H52.4172C52.3996 81.3403 52.3636 81.2181 52.3091 81.1092C52.2546 81.0002 52.1826 80.907 52.0929 80.8297C52.0033 80.7524 51.897 80.6935 51.774 80.6531C51.6527 80.6109 51.5183 80.5898 51.3706 80.5898C51.1088 80.5898 50.8829 80.654 50.6931 80.7823C50.5051 80.9106 50.3601 81.096 50.2582 81.3385C50.158 81.581 50.1079 81.8745 50.1079 82.219C50.1079 82.5775 50.1589 82.878 50.2608 83.1206C50.3645 83.3613 50.5095 83.5432 50.6958 83.6663C50.8838 83.7875 51.1061 83.8482 51.3627 83.8482C51.5068 83.8482 51.6378 83.8297 51.7555 83.7928C51.875 83.7559 51.9796 83.7023 52.0692 83.632C52.1606 83.5599 52.2353 83.4729 52.2933 83.371C52.353 83.2673 52.3944 83.1504 52.4172 83.0204L53.7353 83.0283C53.7124 83.2673 53.643 83.5028 53.527 83.7348C53.4128 83.9668 53.2555 84.1786 53.0552 84.3701C52.8548 84.5599 52.6105 84.7111 52.3223 84.8236C52.0358 84.936 51.7072 84.9923 51.3364 84.9923C50.8478 84.9923 50.4102 84.8851 50.0235 84.6707C49.6386 84.4545 49.3346 84.1399 49.1114 83.7269C48.8882 83.3139 48.7766 82.8113 48.7766 82.219C48.7766 81.625 48.89 81.1215 49.1167 80.7085C49.3434 80.2954 49.6501 79.9817 50.0367 79.7673C50.4234 79.5529 50.8566 79.4457 51.3364 79.4457C51.6632 79.4457 51.9655 79.4914 52.2432 79.5828C52.5209 79.6724 52.7652 79.8042 52.9761 79.9782C53.187 80.1505 53.3583 80.3622 53.4901 80.6135C53.6219 80.8649 53.7037 81.1522 53.7353 81.4756ZM54.482 84.9185V79.5195H56.7122C57.1164 79.5195 57.4653 79.5925 57.7588 79.7383C58.054 79.8824 58.2816 80.0898 58.4416 80.3605C58.6015 80.6294 58.6815 80.9483 58.6815 81.3174C58.6815 81.6918 58.5997 82.0099 58.4363 82.2717C58.2728 82.5318 58.0409 82.7304 57.7403 82.8675C57.4398 83.0028 57.0839 83.0705 56.6727 83.0705H55.2623V82.0424H56.4301C56.627 82.0424 56.7913 82.0169 56.9231 81.9659C57.0567 81.9132 57.1577 81.8341 57.2263 81.7287C57.2948 81.6215 57.3291 81.4844 57.3291 81.3174C57.3291 81.1505 57.2948 81.0125 57.2263 80.9035C57.1577 80.7928 57.0567 80.7102 56.9231 80.6557C56.7895 80.5995 56.6252 80.5714 56.4301 80.5714H55.7869V84.9185H54.482ZM57.5215 82.451L58.866 84.9185H57.4424L56.1243 82.451H57.5215ZM59.3972 84.9185V79.5195H63.1617V80.5793H60.7021V81.6865H62.9692V82.7489H60.7021V83.8587H63.1617V84.9185H59.3972ZM63.9789 84.9185V79.5195H67.7434V80.5793H65.2838V81.6865H67.5509V82.7489H65.2838V83.8587H67.7434V84.9185H63.9789ZM73.1555 79.5195V84.9185H72.0483L69.8998 81.8025H69.8655V84.9185H68.5606V79.5195H69.6836L71.8084 82.6302H71.8532V79.5195H73.1555ZM76.8943 81.1382C76.8767 80.9448 76.7985 80.7946 76.6597 80.6874C76.5226 80.5784 76.3266 80.5239 76.0718 80.5239C75.9031 80.5239 75.7625 80.5459 75.65 80.5898C75.5375 80.6338 75.4532 80.6944 75.3969 80.7717C75.3407 80.8473 75.3117 80.9343 75.3099 81.0327C75.3064 81.1135 75.3222 81.1847 75.3574 81.2462C75.3943 81.3077 75.447 81.3622 75.5156 81.4097C75.5859 81.4554 75.6702 81.4958 75.7686 81.5309C75.867 81.5661 75.9778 81.5968 76.1008 81.6232L76.5648 81.7287C76.8319 81.7867 77.0674 81.864 77.2713 81.9606C77.4769 82.0573 77.6491 82.1724 77.788 82.306C77.9286 82.4396 78.0349 82.5933 78.1069 82.7673C78.179 82.9413 78.2159 83.1364 78.2177 83.3526C78.2159 83.6935 78.1298 83.9861 77.9593 84.2304C77.7888 84.4747 77.5437 84.6619 77.2238 84.7919C76.9057 84.922 76.5217 84.987 76.0718 84.987C75.6201 84.987 75.2265 84.9193 74.8908 84.784C74.5551 84.6487 74.2941 84.4431 74.1078 84.1671C73.9215 83.8912 73.8258 83.5424 73.8205 83.1206H75.07C75.0806 83.2946 75.1272 83.4396 75.2098 83.5555C75.2924 83.6715 75.4057 83.7594 75.5498 83.8192C75.6957 83.8789 75.8644 83.9088 76.056 83.9088C76.2317 83.9088 76.3811 83.8851 76.5041 83.8376C76.6289 83.7902 76.7247 83.7243 76.7915 83.6399C76.8583 83.5555 76.8925 83.4589 76.8943 83.3499C76.8925 83.248 76.8609 83.161 76.7994 83.0889C76.7379 83.0151 76.643 82.9519 76.5147 82.8991C76.3881 82.8446 76.2264 82.7946 76.0296 82.7489L75.4655 82.6171C74.998 82.5099 74.6298 82.3367 74.3609 82.0977C74.092 81.857 73.9584 81.5318 73.9602 81.1223C73.9584 80.7884 74.0481 80.4958 74.2291 80.2445C74.4101 79.9932 74.6605 79.7972 74.9804 79.6566C75.3003 79.516 75.6649 79.4457 76.0744 79.4457C76.4927 79.4457 76.8556 79.5169 77.1632 79.6592C77.4725 79.7998 77.7124 79.9976 77.8829 80.2524C78.0533 80.5072 78.1403 80.8025 78.1438 81.1382H76.8943Z" fill="black"/>
<g clip-path="url(#clip0_639_446)">
<path d="M76.3582 102.546V103.536C76.3334 103.882 76.4164 104.228 76.5958 104.525C76.6656 104.625 76.7586 104.705 76.8667 104.761C76.9748 104.816 77.0948 104.844 77.2161 104.842C77.2593 104.852 77.3037 104.857 77.348 104.855C77.393 104.853 77.4374 104.844 77.4799 104.829C77.6191 104.82 77.7521 104.768 77.8608 104.681C77.9695 104.593 78.0485 104.475 78.0869 104.341C78.1557 104.038 78.1867 103.727 78.1792 103.417C78.1807 103.177 78.1079 102.944 77.9708 102.747C77.8337 102.551 77.6391 102.402 77.4138 102.321C76.873 102.062 76.3069 101.858 75.7245 101.714C75.5926 101.675 75.4605 101.648 75.3286 101.622C75.1967 101.596 75.0645 101.556 74.9327 101.53C74.7216 101.464 74.5103 101.411 74.3257 101.358C74.1499 101.309 73.9779 101.247 73.811 101.173C72.7684 100.751 72.1085 100.171 71.8445 99.4183C71.5668 98.6611 71.4195 97.8623 71.409 97.0558V96.9502C71.409 95.5249 71.8709 94.4294 72.8078 93.6376C73.7449 92.8588 75.1568 92.5025 77.0573 92.5686C78.1226 92.5494 79.1839 92.7055 80.1987 93.0306C81.0297 93.3087 81.8301 93.6713 82.5873 94.1127V97.7683H78.0738V96.9237C78.0875 96.7725 78.0712 96.6201 78.0259 96.4751C77.9806 96.3302 77.9071 96.1957 77.8098 96.0792C77.7376 96.0005 77.65 95.9376 77.5523 95.8944C77.4546 95.8513 77.3491 95.8288 77.2424 95.8285H77.1897C76.9959 95.8302 76.8089 95.9003 76.6618 96.0265C76.5055 96.1455 76.4014 96.3205 76.3716 96.5147C76.3613 96.5578 76.3569 96.6022 76.3585 96.6466V96.7785C76.3473 96.9926 76.3972 97.2055 76.5024 97.3925C76.6075 97.5794 76.7636 97.7326 76.9524 97.8343C77.3671 98.0644 77.811 98.2375 78.272 98.349C78.4583 98.4012 78.6478 98.4409 78.8394 98.4678C79.0243 98.4943 79.1957 98.5339 79.3541 98.5601C79.4012 98.5753 79.45 98.5842 79.4994 98.5866C79.5445 98.5877 79.5892 98.5967 79.6313 98.6131C80.9378 98.9298 81.8615 99.4841 82.4027 100.302C82.9507 101.112 83.2364 102.07 83.221 103.047C83.2225 103.415 83.1917 103.781 83.1287 104.143C83.0644 104.526 82.9762 104.905 82.8647 105.278C82.548 106.373 81.9672 107.112 81.1358 107.495C80.3009 107.88 79.4098 108.13 78.4962 108.234C78.2322 108.274 77.9684 108.3 77.7175 108.313C77.4666 108.326 77.2028 108.353 76.9521 108.353C76.5853 108.347 76.2193 108.316 75.8566 108.26C75.3815 108.194 74.8933 108.115 74.3786 107.996C73.7968 107.842 73.2276 107.644 72.6762 107.403C72.2233 107.237 71.8381 106.926 71.5807 106.518V102.559H76.3582V102.546ZM88.975 96.7522V104.103C88.9656 104.412 89.0102 104.72 89.1069 105.014C89.1271 105.118 89.1829 105.212 89.2648 105.279C89.3467 105.347 89.4495 105.383 89.5555 105.383V108.049H84.1844V105.502C84.2795 105.476 84.3655 105.423 84.4331 105.351C84.5006 105.279 84.5469 105.19 84.5672 105.093C84.5976 104.883 84.6064 104.671 84.5936 104.46V100.566C84.6004 100.353 84.5782 100.14 84.5276 99.9327C84.4812 99.8052 84.4093 99.6884 84.3165 99.5895C84.3066 99.5623 84.2881 99.5391 84.2638 99.5234L84.1977 99.4574V96.7522H88.975ZM84.3162 94.2052C84.3018 93.9538 84.354 93.7031 84.4675 93.4783C84.5811 93.2535 84.7519 93.0627 84.9628 92.9251C85.3823 92.6366 85.8683 92.4595 86.375 92.4105C86.4316 92.4 86.4891 92.3956 86.5465 92.3973H86.718C87.2639 92.3912 87.7999 92.5424 88.2621 92.8328C88.4962 92.9767 88.6864 93.1819 88.812 93.4262C88.9376 93.6705 88.9939 93.9445 88.9748 94.2186C88.9929 94.4958 88.9348 94.7726 88.8069 95.0192C88.679 95.2657 88.486 95.4726 88.249 95.6174C87.7446 95.9238 87.163 96.0795 86.573 96.066C85.9915 96.0788 85.4248 95.882 84.9762 95.5118C84.7737 95.3618 84.6088 95.167 84.4943 94.9426C84.3798 94.7181 84.3188 94.4703 84.3162 94.2183V94.2052ZM94.9401 96.7522V97.7947C94.9389 98.0571 94.9699 98.3186 95.0324 98.5735C95.1277 98.9007 95.2945 99.2026 95.5206 99.4576C95.7832 99.2145 95.9826 98.911 96.1014 98.5735C96.1785 98.321 96.2185 98.0587 96.2201 97.7947V96.7653H100.589V99.3124L100.364 99.4972L100.127 99.7083C100.047 99.7743 99.9683 99.8535 99.8891 99.9327C99.8099 100.012 99.7438 100.091 99.678 100.17C99.6127 100.237 99.551 100.308 99.4932 100.381C99.4405 100.447 99.3875 100.527 99.3348 100.592L97.9226 102.255L99.4667 104.367C99.5855 104.538 99.6911 104.684 99.7834 104.446C99.8729 104.57 99.9698 104.689 100.074 104.802C100.151 104.88 100.234 104.951 100.324 105.013C100.405 105.074 100.494 105.123 100.588 105.159V107.68H95.6661V106.835C95.6655 106.579 95.6434 106.323 95.6 106.07C95.5552 105.827 95.4657 105.594 95.336 105.384C95.2654 105.272 95.1859 105.166 95.0984 105.067C95.009 104.955 94.912 104.849 94.8082 104.75C94.7296 104.836 94.659 104.929 94.5971 105.027C94.5348 105.109 94.4816 105.198 94.4387 105.291C94.3065 105.515 94.2169 105.761 94.1747 106.017C94.1218 106.344 94.0997 106.676 94.1086 107.007V107.693H90.0175V105.502C90.2751 105.397 90.5021 105.23 90.6775 105.014C90.915 104.75 91.2054 104.407 91.5485 103.984L92.8155 102.269L91.8256 101.002C91.5509 100.606 91.2272 100.247 90.8623 99.933C90.6094 99.7242 90.3179 99.5673 90.0044 99.471V96.7653L94.9403 96.7522H94.9401ZM28.6101 92.9645L29.0852 93.0041C29.2435 93.0172 29.4019 93.0306 29.5603 93.0568C30.5641 93.2032 31.5113 93.6131 32.3053 94.2446C33.1367 94.8911 33.5457 95.881 33.5457 97.214V99.7347C33.5457 101.16 33.1629 102.216 32.3844 102.929C31.606 103.641 30.4444 103.984 28.8872 103.984L26.9076 103.971V104.354C26.8939 104.601 26.9028 104.848 26.9341 105.093C26.9571 105.199 27.0067 105.297 27.0783 105.378C27.1499 105.459 27.2411 105.52 27.3431 105.555V108.353H21.4043V105.542C21.5355 105.513 21.6555 105.446 21.7493 105.35C21.8431 105.254 21.9066 105.132 21.9321 105.001C21.9726 104.725 21.9858 104.447 21.9717 104.169V97.2009C21.9871 96.9494 21.9738 96.697 21.9321 96.4486C21.8925 96.2375 21.7077 96.0658 21.4043 95.947V92.9776H28.6101V92.9645ZM26.9076 96.3563V100.725C26.9841 100.751 27.0644 100.764 27.1452 100.764C27.2112 100.764 27.2771 100.777 27.3431 100.777C27.6759 100.795 28.0039 100.692 28.2669 100.487C28.5044 100.289 28.6101 99.9458 28.6101 99.4707V97.7551C28.6101 97.2009 28.4782 96.8445 28.2273 96.6597C27.9763 96.4748 27.5411 96.3825 26.9076 96.3825V96.3563ZM36.0138 97.3857C36.5445 97.1899 37.0924 97.0441 37.6502 96.9502C38.0039 96.8868 38.3607 96.8427 38.7192 96.8183C39.0755 96.7919 39.4186 96.7787 39.7486 96.7787C39.8938 96.7787 40.0388 96.7787 40.1972 96.7918C40.3556 96.7918 40.5008 96.8183 40.6592 96.8314C41.5756 96.9333 42.4539 97.2547 43.2196 97.7685C43.9983 98.2832 44.3809 99.0882 44.3809 100.171V104.671C44.3596 104.899 44.4055 105.128 44.5128 105.331C44.5915 105.459 44.6894 105.575 44.803 105.674C44.8426 105.7 44.8691 105.727 44.8953 105.74L44.9614 105.806V108.327H40.3029V107.495C40.2746 107.53 40.2383 107.557 40.1972 107.574C40.1592 107.592 40.1236 107.614 40.0916 107.641C40.0255 107.693 39.9597 107.733 39.8936 107.786C39.8275 107.839 39.7483 107.891 39.6825 107.944C39.396 108.13 39.0908 108.285 38.7719 108.406C38.3185 108.564 37.8395 108.636 37.3597 108.617C36.5426 108.625 35.7454 108.366 35.0898 107.878C34.4168 107.39 34.0473 106.506 33.9812 105.239C33.9475 104.535 34.1943 103.846 34.6677 103.325C35.0806 102.863 35.5897 102.498 36.1591 102.256C36.2922 102.195 36.4288 102.142 36.5681 102.097C36.6928 102.055 36.8209 102.025 36.9509 102.005L40.0522 101.002V100.711C40.0671 100.442 40.0538 100.173 40.0126 99.9065C39.973 99.6689 39.8015 99.5237 39.4979 99.4579C39.4908 99.4587 39.4835 99.4579 39.4767 99.4557C39.4698 99.4534 39.4636 99.4497 39.4583 99.4447C39.4445 99.4425 39.4312 99.4381 39.4187 99.4316H39.3264C39.1885 99.4294 39.0535 99.4719 38.9417 99.5528C38.8298 99.6336 38.7472 99.7485 38.7061 99.8803C38.5677 100.242 38.5048 100.628 38.5212 101.015L34.562 101.002V98.1644C35.0036 97.8327 35.4932 97.5701 36.0138 97.3857ZM40.0126 104.948V103.681C39.93 103.721 39.8402 103.743 39.7486 103.747C39.5494 103.795 39.355 103.861 39.1678 103.945C38.9561 104.025 38.7596 104.141 38.587 104.288C38.5042 104.352 38.4372 104.434 38.3913 104.528C38.3455 104.622 38.3221 104.725 38.323 104.829C38.3023 105.028 38.3591 105.226 38.4814 105.384C38.5865 105.491 38.7273 105.557 38.8773 105.568C38.9261 105.571 38.975 105.566 39.0226 105.555L39.1809 105.516C39.3077 105.472 39.4311 105.419 39.5504 105.357C39.6653 105.297 39.7717 105.221 39.8671 105.133L39.9463 105.054C39.9721 105.031 39.9944 105.004 40.0124 104.975V104.948L40.0126 104.948ZM45.3972 105.383V100.87C45.3627 99.9012 45.5571 98.9382 45.9646 98.0588C46.3474 97.3065 47.2446 96.9237 48.6568 96.9237C48.8679 96.9237 49.0923 96.9237 49.3168 96.9368C49.5482 96.9424 49.7783 96.9734 50.003 97.0291C50.235 97.0846 50.4606 97.1642 50.676 97.2667C50.9171 97.3987 51.1391 97.563 51.336 97.7549V97.0422H56.1397V99.5893C55.944 99.7257 55.7889 99.9127 55.6911 100.13C55.6033 100.367 55.5586 100.617 55.5592 100.87V108.748C55.5592 110.57 55.1502 111.718 54.345 112.18C53.5398 112.642 52.3918 112.906 50.9136 112.972C50.593 112.998 50.2708 112.998 49.9502 112.972C49.5962 112.946 49.2438 112.902 48.8944 112.84C48.2491 112.728 47.6168 112.551 47.0071 112.312C46.5206 112.147 46.0719 111.887 45.6874 111.547V108.854H49.7919C49.7843 109.161 49.8153 109.466 49.8842 109.765C49.9502 110.016 50.1482 110.134 50.4912 110.134C50.9267 110.134 51.1907 110.029 51.2565 109.831C51.3297 109.565 51.3564 109.288 51.3357 109.012V107.745C51.3225 107.772 51.3093 107.785 51.2961 107.785C51.283 107.785 51.2697 107.798 51.2565 107.812C50.9304 108.027 50.5806 108.204 50.214 108.339C49.7528 108.505 49.2655 108.585 48.7756 108.577C47.6538 108.577 46.8092 108.287 46.2417 107.706C45.9499 107.391 45.7238 107.021 45.5765 106.618C45.4292 106.214 45.3637 105.786 45.3838 105.357L45.3969 105.383H45.3972ZM51.336 105.238V100.144C51.2215 100.093 51.1021 100.053 50.9796 100.025C50.8758 100.001 50.7696 99.9874 50.6629 99.9857C50.5453 99.9824 50.4285 100.006 50.3212 100.054C50.2138 100.102 50.1185 100.173 50.0425 100.263C49.8617 100.52 49.7776 100.833 49.805 101.147V103.668C49.7843 104.109 49.8379 104.551 49.9634 104.974C50.0079 105.104 50.0945 105.214 50.2094 105.288C50.3243 105.362 50.4607 105.396 50.5968 105.383C50.7079 105.382 50.8184 105.368 50.9267 105.344C51.0586 105.317 51.1907 105.278 51.3491 105.238H51.336ZM56.8658 104.803V100.58C56.8658 99.0355 57.3013 98.0192 58.1854 97.5178C59.0696 97.0165 60.3234 96.7787 61.9467 96.7787C63.1252 96.7579 64.2947 96.9873 65.3781 97.4518C66.381 97.9004 66.8957 98.7583 66.8957 100.025V103.536H61.1021V104.671C61.0762 104.986 61.1551 105.302 61.3266 105.568C61.3828 105.648 61.4554 105.716 61.5396 105.766C61.6237 105.816 61.7175 105.847 61.8148 105.858H61.8675C62.0455 105.832 62.2084 105.743 62.3269 105.608C62.4454 105.472 62.5118 105.299 62.5141 105.119V105.04C62.5091 105.035 62.5054 105.029 62.5031 105.022C62.5009 105.015 62.5001 105.008 62.501 105.001V104.103H66.8957V107.059C66.8497 107.119 66.7965 107.172 66.7373 107.218C66.6713 107.27 66.6054 107.31 66.5394 107.363C66.0091 107.678 65.4416 107.927 64.85 108.102C64.1156 108.333 63.3594 108.488 62.5933 108.564C62.4406 108.59 62.2861 108.603 62.1313 108.604C61.9729 108.604 61.8145 108.617 61.6693 108.617C60.112 108.551 58.9242 108.234 58.106 107.667C57.2877 107.099 56.8655 106.162 56.8655 104.816L56.8658 104.803ZM61.1152 101.015H62.8046C62.8206 100.63 62.767 100.245 62.6462 99.8798C62.5793 99.756 62.4802 99.6527 62.3594 99.5807C62.2386 99.5087 62.1006 99.4706 61.9599 99.4706C61.8193 99.4706 61.6812 99.5087 61.5604 99.5807C61.4396 99.6527 61.3405 99.756 61.2736 99.8798C61.1521 100.254 61.0985 100.648 61.1152 101.041V101.015V101.015Z" fill="black"/>
</g>
<defs>
<clipPath id="clip0_639_446">
<rect width="79.1843" height="20.5946" fill="white" transform="translate(21.4043 92.3726)"/>
</clipPath>
</defs>
</svg>
